<svg xmlns="http://www.w3.org/2000/svg" viewBox="0 0 403.8614 224.6954"><path d="M146.9241,188.4265H69.89L57.5069,224.6749H0L78.9673,16.0184H137.84l78.974,208.6565H159.3068Zm-14.3025-41.228L108.397,77.7317,84.1923,147.1985Z" fill="#fff"/><path d="M223.1141,28.2a27.3362,27.3362,0,0,1,2.19-10.9218,28.8387,28.8387,0,0,1,6.05-8.9934,28.3669,28.3669,0,0,1,8.939-6.0807A26.9332,26.9332,0,0,1,251.1518,0a27.2452,27.2452,0,0,1,10.8588,2.2041,28.5014,28.5014,0,0,1,14.9887,15.0741A27.3617,27.3617,0,0,1,279.19,28.2a27.6367,27.6367,0,0,1-2.19,10.9219,28.502,28.502,0,0,1-14.9887,15.0742,27.8521,27.8521,0,0,1-21.7177,0,28.5619,28.5619,0,0,1-14.9885-15.0742A27.4055,27.4055,0,0,1,223.1141,28.2Zm53.1066,54.5112V224.6756H226.4192V82.73h49.8015Z" fill="#fff"/><path d="M297.9516,82.731h49.795v23.2409A57.3773,57.3773,0,0,1,367.274,86.47q11.568-6.7895,26.9624-6.79h4.2683a29.6159,29.6159,0,0,1,5.3567.5508v47.8792a47.042,47.042,0,0,0-21.46-4.9789q-17.3469,0-26.0057,10.3714-8.6886,10.3607-8.6685,30.3057v60.8867h-49.795V82.731Z" fill="#fff"/></svg>