<svg xmlns="http://www.w3.org/2000/svg" viewBox="0 0 920.9266 37.1016"><path d="M905.1694,7.7238V12.799l-4.2888,5.2948H896.774Z"/><path d="M901.989,30.8255h3.1754v3.1853H901.989Z"/><path d="M911.3479,30.83h7.1247v3.1854h-7.1247Z"/><path d="M906.6647,24.2649H909.86v9.7459h-3.1954V24.2649Z"/><path d="M895.7954,19.5892h14.0622v3.1854H895.7954Z"/><path d="M916.0287,19.5867h4.8979v3.1854h-4.8979Z"/><path d="M914.5333,4.3862V29.3376h-3.1854V8.3205Z"/><path d="M909.8576,1.9347V18.0963h-3.1954V5.879Z"/><path d="M911.6874,0l2.7036,2.1868-3.0431,3.7571V.4194Z"/><path d="M1.4354,24.6452v2.4507H0V20.3625H2.4623a3.2479,3.2479,0,0,1,2.0422.56A1.8872,1.8872,0,0,1,5.2163,22.51a1.9261,1.9261,0,0,1-1.2136,1.8671c.28.4435.56.8986.84,1.342s.5484.91.8285,1.3771H3.991q-.6827-1.2429-1.4-2.4507Zm0-1.1319h.9452a1.7621,1.7621,0,0,0,1.0152-.2451.8531.8531,0,0,0,.35-.7585.874.874,0,0,0-.3384-.7585,1.7623,1.7623,0,0,0-1.0152-.2451H1.4354Zm9.8958,3.5826c-.1634-.49-.3268-.98-.49-1.4587H8.11c-.1634.4784-.3268.9685-.49,1.4587H6.0682c.4318-1.1787.8635-2.334,1.307-3.4542s.8869-2.2173,1.342-3.2792h1.5637c.4668,1.12.9219,2.2406,1.3653,3.3725s.8753,2.2522,1.2837,3.3725l-1.5987-.0116ZM8.5305,24.4352h1.89c-.1517-.4435-.3034-.8752-.4667-1.3187-.1634-.4317-.3151-.8635-.4785-1.2836C9.1489,22.6964,8.8339,23.56,8.5305,24.4352Zm5.2163-4.0727h2.5673a3.814,3.814,0,0,1,1.82.3968A2.7305,2.7305,0,0,1,19.29,21.9029a3.7978,3.7978,0,0,1,.3968,1.8088,3.814,3.814,0,0,1-.3968,1.82,2.7577,2.7577,0,0,1-1.1553,1.1553,3.8307,3.8307,0,0,1-1.8321.3968H13.7351Zm2.4856,5.4964a1.8819,1.8819,0,0,0,1.447-.5485,2.2538,2.2538,0,0,0,.5018-1.5871,2.2434,2.2434,0,0,0-.49-1.5637,1.86,1.86,0,0,0-1.447-.5368h-1.05v4.2477Zm4.61-5.4964h1.447v6.7334h-1.447Zm5.94-.14a3.6879,3.6879,0,0,1,1.377.245,2.9139,2.9139,0,0,1,1.05.7,3.1427,3.1427,0,0,1,.6768,1.0969,4.5843,4.5843,0,0,1,0,2.9058,3.0252,3.0252,0,0,1-.6768,1.1086,2.9432,2.9432,0,0,1-1.05.7118,4.0235,4.0235,0,0,1-2.7657,0,2.8,2.8,0,0,1-1.05-.7118,3.191,3.191,0,0,1-.6768-1.1086,4.5843,4.5843,0,0,1,0-2.9058,2.98,2.98,0,0,1,.6768-1.0969,2.9139,2.9139,0,0,1,1.05-.7A3.6,3.6,0,0,1,26.7817,20.2225Zm0,5.7531a1.7667,1.7667,0,0,0,.9919-.2684,1.6985,1.6985,0,0,0,.63-.77,3.4757,3.4757,0,0,0,0-2.4273,1.6105,1.6105,0,0,0-.63-.7585,2.0048,2.0048,0,0,0-1.9838,0,1.7307,1.7307,0,0,0-.63.7585,3.4757,3.4757,0,0,0,0,2.4273,1.6985,1.6985,0,0,0,.63.77,1.7667,1.7667,0,0,0,.9919.2684ZM0,10.0233v8.5421H8.5421V10.0233Zm5.9515,6.0331a1.4591,1.4591,0,0,1-.6185.4785,2.5277,2.5277,0,0,1-.9686.1634H2.4389V11.89H4.2361a2.0825,2.0825,0,0,1,1.2369.3151,1.092,1.092,0,0,1,.4435.9219,1.1594,1.1594,0,0,1-.1517.5951,1.0316,1.0316,0,0,1-.4668.3968,1.3409,1.3409,0,0,1,.6535.4434,1.3688,1.3688,0,0,1,0,1.4937ZM4.7378,13.6992a.5362.5362,0,0,0,.1984-.4551c0-.3851-.2567-.5718-.7818-.5718H3.4192v1.19h.7352A.8158.8158,0,0,0,4.7378,13.6992Zm-.4551.9219H3.4192v1.2953h.8519a1.2646,1.2646,0,0,0,.6768-.1634.538.538,0,0,0,.2334-.4784C5.17,14.8428,4.8779,14.6211,4.2827,14.6211Zm6.395-4.5978v8.5421H19.22V10.0233Zm5.9514,6.0331a1.4588,1.4588,0,0,1-.6184.4785,2.528,2.528,0,0,1-.9686.1634H13.1283V11.89h1.7971a2.083,2.083,0,0,1,1.237.3151,1.0919,1.0919,0,0,1,.4434.9219,1.1594,1.1594,0,0,1-.1517.5951,1.0316,1.0316,0,0,1-.4668.3968,1.34,1.34,0,0,1,.6535.4434,1.2225,1.2225,0,0,1,.2217.7469A1.4088,1.4088,0,0,1,16.6291,16.0564Zm-1.2253-2.3572a.5362.5362,0,0,0,.1984-.4551c0-.3851-.2567-.5718-.7818-.5718h-.7352v1.19H14.82A.8008.8008,0,0,0,15.4038,13.6992Zm-.4551.9219h-.8635v1.2953h.8519a1.2646,1.2646,0,0,0,.6768-.1634.538.538,0,0,0,.2334-.4784c0-.4318-.2918-.6535-.8986-.6535Zm6.395,3.9443h8.5421V10.0233H21.3437v8.5421Zm6.1382-2.1706a2.5985,2.5985,0,0,1-.6885.2568,3.2835,3.2835,0,0,1-.8286.0933,3.1683,3.1683,0,0,1-1.0386-.1633,2.037,2.037,0,0,1-1.272-1.26,3.0626,3.0626,0,0,1-.175-1.0269,2.9955,2.9955,0,0,1,.175-1.0152,2.0315,2.0315,0,0,1,.5135-.77,2.2558,2.2558,0,0,1,.7935-.49A3.1818,3.1818,0,0,1,26,11.8437a3.287,3.287,0,0,1,.7585.0817,2.2846,2.2846,0,0,1,.6652.2451v.9335a1.9178,1.9178,0,0,0-.6068-.28,2.2786,2.2786,0,0,0-.6885-.0934,1.7374,1.7374,0,0,0-.84.1867,1.1949,1.1949,0,0,0-.5368.5368,1.814,1.814,0,0,0-.1867.8519,1.957,1.957,0,0,0,.175.8519,1.17,1.17,0,0,0,.5251.5368,1.7236,1.7236,0,0,0,.8286.1867,2.5817,2.5817,0,0,0,1.377-.3851l.0117.8985Z"/><path d="M48.09,16.7916c-.3967-1.1086-.7935-2.2055-1.19-3.2675q-1.2252,3.2908-2.3806,6.6167h4.7379C48.8839,19.0088,48.4871,17.9,48.09,16.7916ZM46.9467,5.7522A12.8056,12.8056,0,1,0,59.7482,18.5537,12.8048,12.8048,0,0,0,46.9467,5.7522Zm-5.3213,12.37q1.6629-4.2885,3.3608-8.3437h3.9093c1.167,2.8474,2.2989,5.6948,3.4075,8.5655q1.47,3.7809,2.8474,7.55H51.2061c-.2917-.8986-.5951-1.7971-.8986-2.6957H43.4692c-.2918.8986-.5952,1.7971-.8869,2.6957H38.72q1.4353-3.9735,2.9057-7.772Z"/><path d="M97.581,19.6623a4.1627,4.1627,0,0,0-1.5054.2684,3.0982,3.0982,0,0,0-1.1436.77,3.1879,3.1879,0,0,0-.7235,1.202,4.9626,4.9626,0,0,0,0,3.1508,3.6093,3.6093,0,0,0,.7235,1.2136,3.1955,3.1955,0,0,0,1.1436.77,4.1627,4.1627,0,0,0,1.5054.2684,4.0538,4.0538,0,0,0,1.4937-.2684,3.0036,3.0036,0,0,0,1.1436-.77,3.2,3.2,0,0,0,.7352-1.2136,4.7941,4.7941,0,0,0,.2567-1.5754,4.4614,4.4614,0,0,0-.2567-1.5754,3.4707,3.4707,0,0,0-.7352-1.202,3.0965,3.0965,0,0,0-1.1436-.77A4.0538,4.0538,0,0,0,97.581,19.6623Zm-33.5384.1517v7.3285H65.56V22.0779c.5368.8052,1.0736,1.6338,1.6221,2.4973.5484.8519,1.0852,1.7038,1.622,2.5557h1.5988V19.8024H68.8855v5.0062q-.8052-1.2778-1.61-2.5206c-.5368-.8286-1.0736-1.6688-1.6337-2.4856H64.0426Zm7.7136,0v7.3285h5.24v-1.307H73.3433V24.0268h3.0691V22.72H73.3433V21.1327h3.4659v-1.307Zm5.5314,0v1.377h2.2989v5.9515h1.5754V21.191h2.3106V19.814Zm6.5116,0c.2918,1.2487.5952,2.474.91,3.6993.3267,1.2253.6535,2.4273,1.0035,3.6292h1.6688c.2334-.8285.4551-1.657.6768-2.4739.2217-.8286.4318-1.6571.63-2.474.21.8286.4318,1.6571.6418,2.474.2217.8285.4551,1.6571.6885,2.4739h1.6688c.35-1.19.6885-2.4039,1.0035-3.6292.3268-1.2253.63-2.4506.91-3.6993H91.91c-.1634.9336-.3384,1.8555-.5368,2.7891s-.3851,1.8438-.5952,2.7423c-.2217-.8635-.4434-1.7388-.6651-2.6023l-.63-2.6257h-1.54c-.4084,1.7738-.84,3.5593-1.2953,5.333-.21-.91-.4084-1.8438-.6068-2.8007-.1867-.9452-.3734-1.9021-.5485-2.8473Zm18.4613,0v7.3285h1.5521V24.4819h1.26c.5251.8752,1.0386,1.7621,1.5287,2.6606H108.41c-.3034-.5134-.6069-1.0152-.8986-1.4937l-.91-1.47a2.12,2.12,0,0,0,.9686-.7936,2.1434,2.1434,0,0,0,.35-1.237,2.0376,2.0376,0,0,0-.7818-1.727,3.4847,3.4847,0,0,0-2.2172-.6069Zm6.8617,0v7.3285h1.5754V23.9917h.3734c.4668.5485.9219,1.0736,1.3537,1.5871s.8636,1.0386,1.2953,1.5637h2.0072c-.56-.6651-1.12-1.3186-1.6688-1.96s-1.0969-1.2836-1.657-1.9138c.5251-.5834,1.0386-1.1553,1.552-1.7154.5018-.5718,1.0036-1.1553,1.4937-1.7271H113.545c-.3851.4785-.7819.9452-1.19,1.412-.3968.4551-.8169.9336-1.2487,1.4237h-.4084V19.8257h-1.5754ZM97.581,21.0393a1.8967,1.8967,0,0,1,1.0736.2918,1.8016,1.8016,0,0,1,.6885.8285,3.8417,3.8417,0,0,1,0,2.6373,1.8215,1.8215,0,0,1-.6885.84,1.9935,1.9935,0,0,1-1.0736.2917,1.8046,1.8046,0,0,1-1.7621-1.132,3.8417,3.8417,0,0,1,0-2.6373,1.7344,1.7344,0,0,1,.6885-.8285A1.8967,1.8967,0,0,1,97.581,21.0393Zm6.2432.0234h1.0386a1.8745,1.8745,0,0,1,1.097.2684.9286.9286,0,0,1,.3734.8285.9569.9569,0,0,1-.3734.8286,1.948,1.948,0,0,1-1.1086.2567h-1.027Z"/><path d="M74.1018,9.8949a3.8638,3.8638,0,0,0-1.54.28,2.174,2.174,0,0,0-1.0035.77,2.0556,2.0556,0,0,0-.35,1.2019,2.1329,2.1329,0,0,0,.1633.8519,1.7,1.7,0,0,0,.4785.6068,3.2676,3.2676,0,0,0,.7819.4318,6.7361,6.7361,0,0,0,1.0619.3267,4.4688,4.4688,0,0,1,.6651.21,1.1036,1.1036,0,0,1,.4668.2917.6254.6254,0,0,1,.1867.49.7349.7349,0,0,1-.3734.6535,1.9724,1.9724,0,0,1-1.05.2333,4.388,4.388,0,0,1-2.3223-.6651V16.99a4.8955,4.8955,0,0,0,1.132.42,5.1924,5.1924,0,0,0,1.2019.1284,4.5635,4.5635,0,0,0,1.6338-.2684,2.2581,2.2581,0,0,0,1.0386-.7936,2.2146,2.2146,0,0,0,.3617-1.2486,2.0454,2.0454,0,0,0-.1984-.9336,1.6511,1.6511,0,0,0-.5368-.63,2.9674,2.9674,0,0,0-.7935-.3968c-.3034-.105-.63-.21-.9686-.2917-.2684-.07-.5134-.14-.7118-.21a1.2142,1.2142,0,0,1-.4668-.28.6677.6677,0,0,1-.1634-.4667.7084.7084,0,0,1,.3384-.6185,1.8936,1.8936,0,0,1,.9686-.21,4.1369,4.1369,0,0,1,1.132.1517,3.8834,3.8834,0,0,1,1.0269.4318V10.385a4.94,4.94,0,0,0-1.0153-.3617,4.7077,4.7077,0,0,0-1.1436-.1284Zm-7.8419.1517q-.7353,1.733-1.47,3.5709c-.4785,1.2253-.9452,2.4739-1.412,3.7576H65.07c.175-.5368.35-1.0619.5368-1.5871h2.9757c.1751.5135.35,1.05.5368,1.5871h1.7154c-.4551-1.2136-.9219-2.4389-1.4-3.6526-.4785-1.2253-.9686-2.4506-1.47-3.6642Zm11.3661,0v7.3285h1.5754V10.0466Zm5.1463,0q-.7352,1.733-1.47,3.5709c-.4784,1.2253-.9452,2.4739-1.412,3.7576H81.582c.1751-.5368.35-1.0619.5368-1.5871h2.9758c.175.5135.35,1.05.5368,1.5871h1.7271c-.4552-1.2136-.9219-2.4389-1.4-3.6526-.4784-1.2253-.9686-2.4506-1.47-3.6642H82.7723Zm5.263,0v7.3285h1.517V12.3105c.5368.8052,1.0736,1.6337,1.6221,2.4973.5485.8519,1.0853,1.7037,1.6221,2.5556h1.5987V10.0466h-1.517v5.0062q-.8052-1.2777-1.61-2.5206c-.5368-.8285-1.0736-1.6687-1.6338-2.4856ZM67.0884,11.6453c.175.4551.3384.9219.5135,1.4.175.4668.35.9452.5134,1.4237H66.05C66.3882,13.5241,66.7383,12.5789,67.0884,11.6453Zm16.5125,0c.175.4551.3384.9219.5134,1.4.1751.4668.35.9452.5135,1.4237H82.5739C82.9007,13.5241,83.2391,12.5789,83.6009,11.6453Z"/><path d="M131.9281,7.2576V18.8087h11.5511V7.2576Zm7.9962,7.9962h-4.4436V10.81h4.4436Z"/><path d="M147.034,10.8125h4.4436v4.4436H147.034Z"/><path d="M155.03,7.2576h6.4365a3.1039,3.1039,0,0,1,3.44,3.014,2.4523,2.4523,0,0,1-1.4678,2.33,2.8019,2.8019,0,0,1,2.0827,2.7851c0,1.6585-1.2052,3.42-4.0464,3.42H155.028Zm3.5145,8.9433h2.3295a1.1157,1.1157,0,0,0,1.2029-1.1176,1,1,0,0,0-1.084-.9561h-2.4462v2.0737Zm.009-4.3965h1.8716c.8551,0,1.1962-.3994,1.1962-.9829a.8626.8626,0,0,0-.9515-.8888h-2.1163Z"/><path d="M169.18,7.2576h3.7209l4.2371,11.5354h-3.82l-.5588-1.7281h-3.5661L168.72,18.784H164.93Zm1.71,3.4247-.983,3.8534h2.1006Z"/><path d="M183.0741,10.6891h3.5481c.0023-1.9593-1.4722-3.7771-4.9687-3.7771-3.8354,0-5.0226,2.1163-5.0226,3.6671,0,2.4978,3.0567,3.1621,3.1532,3.1913.4578.1436,2.3542.6531,2.8277.8214a1.0774,1.0774,0,0,1,.8034.9156c0,.6733-.8034.9987-1.4722.9987a1.695,1.695,0,0,1-1.8717-1.672h-3.6648c0,2.0311,1.3982,4.3045,5.3188,4.3045,4.3269,0,5.2313-2.5809,5.2313-3.9544a3.1811,3.1811,0,0,0-2.0983-2.9534c-.882-.3568-2.3408-.6665-3.0746-.8819-.37-.1078-1.6024-.3569-1.6024-1.1087,0-.9628,1.5867-.8371,1.3555-.8371A1.39,1.39,0,0,1,183.0741,10.6891Z"/><path d="M187.5558,7.2554h8.8558V10.303H191.095v2.0333h4.742v2.913h-4.7577v3.5571H187.54Z"/><path d="M136.5378,27.9472l-.0045-.0135-1.1064-4.1608h-.6935l-1.1266,4.1743h-.0449l-.0045-.0157-.9785-4.1608h-.6418l1.277,4.98h.6665l1.16-4.2169h.0426l.0045.0135,1.1423,4.2034h.6665l1.3331-4.98h-.6284l-1.0189,4.1765Z"/><path d="M141.1743,25.7725a1.5946,1.5946,0,0,0-.5072-.5027,1.4829,1.4829,0,0,0-.7944-.1975,1.6373,1.6373,0,0,0-.6778.1392,1.5813,1.5813,0,0,0-.5341.3882,1.7539,1.7539,0,0,0-.35.59,2.2048,2.2048,0,0,0-.1257.7519,2.9174,2.9174,0,0,0,.1212.7608,1.6275,1.6275,0,0,0,.3232.5969,1.47,1.47,0,0,0,.5319.3883,1.8658,1.8658,0,0,0,.7473.1391,1.6414,1.6414,0,0,0,1.0144-.3052,1.43,1.43,0,0,0,.5162-.8865h-.5521a.8721.8721,0,0,1-.3232.5319,1.0509,1.0509,0,0,1-.6329.18,1.2747,1.2747,0,0,1-.5206-.0988,1.0107,1.0107,0,0,1-.5723-.6553,1.519,1.519,0,0,1-.0584-.46v-.0179h2.7223a2.8318,2.8318,0,0,0-.0606-.6733,2.0382,2.0382,0,0,0-.2671-.6688m-2.3968.8528.0022-.02a1.3048,1.3048,0,0,1,.0921-.4039,1.0845,1.0845,0,0,1,.2154-.3322.9828.9828,0,0,1,.3254-.2244,1.0693,1.0693,0,0,1,.4264-.083,1.0454,1.0454,0,0,1,.75.3052,1.0644,1.0644,0,0,1,.2222.3321,1.2613,1.2613,0,0,1,.0942.4062l.0023.02Z"/><path d="M145.6965,28.3466a1.0037,1.0037,0,0,1-.4938-.1144.9917.9917,0,0,1-.3366-.303,1.342,1.342,0,0,1-.1885-.4309,2.055,2.055,0,0,1-.0606-.4959,2.5077,2.5077,0,0,1,.0561-.5342,1.3742,1.3742,0,0,1,.1885-.46,1.0012,1.0012,0,0,1,.3546-.3232,1.138,1.138,0,0,1,.55-.1212.8557.8557,0,0,1,.9157.7249h.5812a1.3738,1.3738,0,0,0-.1638-.53,1.1988,1.1988,0,0,0-.3366-.3838,1.4116,1.4116,0,0,0-.4713-.2267,2.27,2.27,0,0,0-.5745-.074,1.7151,1.7151,0,0,0-.7429.15,1.4852,1.4852,0,0,0-.5319.4085,1.763,1.763,0,0,0-.3164.61,2.7048,2.7048,0,0,0-.1055.7586,2.4526,2.4526,0,0,0,.1077.7428,1.5978,1.5978,0,0,0,.321.579,1.4184,1.4184,0,0,0,.5274.3748,1.8766,1.8766,0,0,0,.7271.1324,1.5792,1.5792,0,0,0,1.0884-.3591,1.6553,1.6553,0,0,0,.4938-1.0054h-.5745a1.0678,1.0678,0,0,1-.31.6486,1.0137,1.0137,0,0,1-.7047.2311"/><path d="M149.1144,25.2653a1.6609,1.6609,0,0,0-.5543.6464l-.0045.0112h-.02v-.7653H148.01v3.5953h.5588V27.155a2.5822,2.5822,0,0,1,.07-.6284,1.2433,1.2433,0,0,1,.229-.4668.9921.9921,0,0,1,.4151-.294,1.75,1.75,0,0,1,.5993-.101V25.07h-.04a1.3188,1.3188,0,0,0-.7272.1952"/><path d="M152.9386,25.7725a1.5956,1.5956,0,0,0-.5072-.5027,1.4832,1.4832,0,0,0-.7945-.1975,1.6368,1.6368,0,0,0-.6777.1392,1.6129,1.6129,0,0,0-.5341.3882,1.7968,1.7968,0,0,0-.3524.59,2.2084,2.2084,0,0,0-.1257.7541,2.9168,2.9168,0,0,0,.1212.7608,1.6279,1.6279,0,0,0,.3232.597,1.4685,1.4685,0,0,0,.5319.3882,1.8583,1.8583,0,0,0,.7473.1392,1.6414,1.6414,0,0,0,1.0144-.3053,1.4293,1.4293,0,0,0,.5162-.8864h-.5544a.8721.8721,0,0,1-.3231.5319,1.0517,1.0517,0,0,1-.6329.18,1.2752,1.2752,0,0,1-.5207-.0988,1.01,1.01,0,0,1-.5722-.6553,1.5212,1.5212,0,0,1-.0584-.46v-.018h2.7223a2.8318,2.8318,0,0,0-.0606-.6733,1.9319,1.9319,0,0,0-.2626-.671m-2.3968.8528.0022-.02a1.248,1.248,0,0,1,.0943-.4039,1.0845,1.0845,0,0,1,.2154-.3322.9828.9828,0,0,1,.3254-.2244,1.069,1.069,0,0,1,.4264-.083,1.0369,1.0369,0,0,1,.42.083,1.0194,1.0194,0,0,1,.3276.2222,1.0386,1.0386,0,0,1,.2222.3321,1.2762,1.2762,0,0,1,.0965.4062l.0023.02Z"/><path d="M156.8907,28.2344a1.4562,1.4562,0,0,1-.0247-.3142V26.0508a.9885.9885,0,0,0-.1167-.5049.83.83,0,0,0-.31-.3008,1.2773,1.2773,0,0,0-.4331-.1414,2.9837,2.9837,0,0,0-1.0593.027,1.4124,1.4124,0,0,0-.478.2042,1.0668,1.0668,0,0,0-.3322.368,1.2634,1.2634,0,0,0-.1369.5409h.5588a.6245.6245,0,0,1,.2828-.5431,1.2931,1.2931,0,0,1,.6418-.1459,1.7506,1.7506,0,0,1,.2873.0225.845.845,0,0,1,.2671.0852.5484.5484,0,0,1,.1975.1886.616.616,0,0,1,.0763.3276.35.35,0,0,1-.1055.2716.633.633,0,0,1-.2738.1369,2.5849,2.5849,0,0,1-.3927.0718c-.1459.0157-.303.04-.4668.0718a4.2279,4.2279,0,0,0-.4511.1055,1.2233,1.2233,0,0,0-.386.184.9133.9133,0,0,0-.2716.3142,1.0735,1.0735,0,0,0-.1032.4982,1.0259,1.0259,0,0,0,.0942.46.85.85,0,0,0,.2536.31,1.0134,1.0134,0,0,0,.3771.1728,1.9809,1.9809,0,0,0,.46.0516,1.8693,1.8693,0,0,0,.7-.1279,1.4337,1.4337,0,0,0,.5656-.42l.0336-.04v.0539a.5523.5523,0,0,0,.13.4107.5029.5029,0,0,0,.3568.1234.8493.8493,0,0,0,.4107-.083v-.4264a.5126.5126,0,0,1-.1638.0269c-.1077.0045-.1706-.0337-.1885-.11m-.5835-.7248a.7024.7024,0,0,1-.0651.2782.8339.8339,0,0,1-.202.2738,1.0847,1.0847,0,0,1-.35.2065,1.4524,1.4524,0,0,1-.5139.0808,1.1881,1.1881,0,0,1-.2671-.0292.6139.6139,0,0,1-.2311-.0942.5584.5584,0,0,1-.1616-.1706.5194.5194,0,0,1-.0629-.26.586.586,0,0,1,.1055-.3658.686.686,0,0,1,.2716-.2065,1.51,1.51,0,0,1,.37-.1032c.1279-.02.2648-.0382.4039-.0561.1347-.0158.2626-.0382.3816-.0629a.7374.7374,0,0,0,.2872-.1189l.0314-.0247Z"/><path d="M162.7526,25.7725a1.5734,1.5734,0,0,0-.5072-.5027,1.4884,1.4884,0,0,0-.7944-.1975,1.6373,1.6373,0,0,0-.6778.1392,1.6129,1.6129,0,0,0-.5341.3882,1.7968,1.7968,0,0,0-.3524.59,2.2023,2.2023,0,0,0-.1256.7519,2.9131,2.9131,0,0,0,.1211.7608,1.6557,1.6557,0,0,0,.3232.5992,1.4694,1.4694,0,0,0,.5319.3882,1.8658,1.8658,0,0,0,.7473.1392,1.6414,1.6414,0,0,0,1.0144-.3053,1.44,1.44,0,0,0,.5162-.8864h-.5521a.8827.8827,0,0,1-.3232.5319,1.0466,1.0466,0,0,1-.6328.18,1.2749,1.2749,0,0,1-.5207-.0988,1.0107,1.0107,0,0,1-.5723-.6553,1.44,1.44,0,0,1-.0561-.46v-.018h2.72a2.8215,2.8215,0,0,0-.0606-.6733,2.1165,2.1165,0,0,0-.2648-.671m-2.3879.8528.0023-.02a1.25,1.25,0,0,1,.0942-.4039,1.0458,1.0458,0,0,1,.2155-.3322.9828.9828,0,0,1,.3254-.2244,1.069,1.069,0,0,1,.4264-.083,1.0315,1.0315,0,0,1,.9695.6373,1.2788,1.2788,0,0,1,.0965.4062l.0023.02Z"/><path d="M167.2815,28.3466a1.0037,1.0037,0,0,1-.4938-.1144.9917.9917,0,0,1-.3366-.303,1.342,1.342,0,0,1-.1885-.4309,2.055,2.055,0,0,1-.0606-.4959,2.5077,2.5077,0,0,1,.0561-.5342,1.3742,1.3742,0,0,1,.1885-.46.9813.9813,0,0,1,.3546-.3232,1.1412,1.1412,0,0,1,.5521-.1212.8557.8557,0,0,1,.9156.7249h.5813a1.3772,1.3772,0,0,0-.1638-.53,1.2275,1.2275,0,0,0-.3367-.3838,1.4562,1.4562,0,0,0-.4713-.2267,2.27,2.27,0,0,0-.5745-.074,1.7147,1.7147,0,0,0-.7428.15,1.4834,1.4834,0,0,0-.5319.4085,1.7231,1.7231,0,0,0-.3164.61,2.7011,2.7011,0,0,0-.1055.7586,2.4464,2.4464,0,0,0,.1077.7428,1.6257,1.6257,0,0,0,.3187.579,1.4184,1.4184,0,0,0,.5274.3748,1.8927,1.8927,0,0,0,.7271.1324,1.5758,1.5758,0,0,0,1.0885-.3591,1.65,1.65,0,0,0,.4937-1.0054h-.5723a1.0673,1.0673,0,0,1-.31.6486,1.0194,1.0194,0,0,1-.7069.2311"/><path d="M172.32,25.4381a.9887.9887,0,0,0-.3793-.2693,1.5539,1.5539,0,0,0-.59-.0965,1.636,1.636,0,0,0-.33.0359,1.3921,1.3921,0,0,0-.3254.1077,1.0738,1.0738,0,0,0-.28.1863.7908.7908,0,0,0-.211.2783l-.0044.0112h-.027V23.7729h-.5588v4.98h.5588V26.72a1.4548,1.4548,0,0,1,.0674-.46,1.06,1.06,0,0,1,.2042-.368.9455.9455,0,0,1,.3411-.2447,1.27,1.27,0,0,1,.4825-.0852.7514.7514,0,0,1,.5543.2019.7422.7422,0,0,1,.202.5476v2.4418h.5611V26.3807a2.2543,2.2543,0,0,0-.0584-.5341,1.0076,1.0076,0,0,0-.2064-.4085"/><path d="M176.3347,25.7725a1.5511,1.5511,0,0,0-.5072-.5027,1.4832,1.4832,0,0,0-.7945-.1975,1.6368,1.6368,0,0,0-.6777.1392,1.6133,1.6133,0,0,0-.5342.3882,1.835,1.835,0,0,0-.3523.59,2.2048,2.2048,0,0,0-.1257.7519,2.9174,2.9174,0,0,0,.1212.7608,1.6452,1.6452,0,0,0,.3232.5969,1.47,1.47,0,0,0,.5319.3883,1.8583,1.8583,0,0,0,.7473.1391,1.6414,1.6414,0,0,0,1.0144-.3052,1.44,1.44,0,0,0,.5162-.8865h-.5521a.8647.8647,0,0,1-.3254.5319,1.0559,1.0559,0,0,1-.6329.18,1.2752,1.2752,0,0,1-.5207-.0988,1.01,1.01,0,0,1-.5722-.6553,1.4394,1.4394,0,0,1-.0584-.46v-.0179h2.72a2.8318,2.8318,0,0,0-.0606-.6733,1.978,1.978,0,0,0-.26-.6688m-2.3991.8528.0022-.02a1.3048,1.3048,0,0,1,.0921-.4039,1.0438,1.0438,0,0,1,.2154-.3322.9828.9828,0,0,1,.3254-.2244,1.069,1.069,0,0,1,.4264-.083,1.0353,1.0353,0,0,1,.7474.3052,1.0659,1.0659,0,0,1,.2221.3321,1.2762,1.2762,0,0,1,.0965.4062l.0023.02Z"/><path d="M182.1091,25.3125a1.0528,1.0528,0,0,0-.3726-.1841,1.8979,1.8979,0,0,0-.4914-.0583,1.3588,1.3588,0,0,0-.6486.1593,1.2464,1.2464,0,0,0-.4736.4489l-.0224.0359-.0135-.0382a.762.762,0,0,0-.377-.4668,1.31,1.31,0,0,0-.6037-.1391,1.3412,1.3412,0,0,0-1.1782.61l-.0067.009h-.0225v-.5341h-.5251v3.5952h.5588V26.5064a.9273.9273,0,0,1,.0538-.2693,1.059,1.059,0,0,1,.1706-.312,1.0409,1.0409,0,0,1,.31-.2581.9065.9065,0,0,1,.4556-.1077.7906.7906,0,0,1,.3411.0629.5278.5278,0,0,1,.2154.175.7013.7013,0,0,1,.1123.2626,1.4664,1.4664,0,0,1,.0314.3276v2.3632h.5588V26.5064a.933.933,0,0,1,.2581-.6868.9657.9657,0,0,1,.7092-.258.8753.8753,0,0,1,.3613.065.5283.5283,0,0,1,.2222.18.6553.6553,0,0,1,.1077.2648,1.7074,1.7074,0,0,1,.0292.3209v2.3632h.5588V26.1069a1.1982,1.1982,0,0,0-.0853-.4735.752.752,0,0,0-.2334-.3209"/><path d="M183.974,24.4641h-.5588v-.6934h.5588Zm0,.6913h-.5588v3.5952h.5588Z"/><path d="M187.3179,28.5935a1.0585,1.0585,0,0,0,.3524-.3456.9933.9933,0,0,0,.1346-.5386.8556.8556,0,0,0-.0987-.4264.8857.8857,0,0,0-.2626-.285,1.4194,1.4194,0,0,0-.3748-.1841,4.2,4.2,0,0,0-.4376-.1189c-.1414-.0337-.2805-.0651-.4219-.0943a2.5728,2.5728,0,0,1-.3838-.1122.9388.9388,0,0,1-.2827-.1728.3549.3549,0,0,1-.1145-.2715.372.372,0,0,1,.0741-.24.5405.5405,0,0,1,.1885-.1458.9067.9067,0,0,1,.2558-.0763,1.5206,1.5206,0,0,1,.57.0112.8929.8929,0,0,1,.2694.1032.59.59,0,0,1,.2939.478h.5589a1.3466,1.3466,0,0,0-.1369-.5251.9244.9244,0,0,0-.3142-.3434,1.3235,1.3235,0,0,0-.4534-.18,2.8026,2.8026,0,0,0-.5655-.0516,1.99,1.99,0,0,0-.4758.0583,1.4269,1.4269,0,0,0-.4309.18,1.01,1.01,0,0,0-.31.3142.8671.8671,0,0,0-.1189.46.7783.7783,0,0,0,.1705.5341,1.1441,1.1441,0,0,0,.4332.3008,3.1463,3.1463,0,0,0,.57.1683c.2042.0381.3972.083.5745.1346a1.4822,1.4822,0,0,1,.4444.1953.42.42,0,0,1,.184.368.45.45,0,0,1-.09.29.534.534,0,0,1-.2221.1706,1.1723,1.1723,0,0,1-.29.0785,2.0042,2.0042,0,0,1-.6553-.0134,1.0461,1.0461,0,0,1-.3142-.119.6649.6649,0,0,1-.229-.2244.6927.6927,0,0,1-.0942-.3254h-.5588a1.3173,1.3173,0,0,0,.1369.5454,1.0217,1.0217,0,0,0,.3321.3725,1.4331,1.4331,0,0,0,.478.2042,2.72,2.72,0,0,0,1.12.0112,1.3978,1.3978,0,0,0,.4937-.184"/><path d="M189.3175,24.0669h-.5588v1.0885h-.5969v.4892h.5969v2.3318a1.3109,1.3109,0,0,0,.0494.4017.4691.4691,0,0,0,.1459.2289.5686.5686,0,0,0,.2581.1122,2.1051,2.1051,0,0,0,.3927.0314h.4376v-.4892h-.2558a2.0107,2.0107,0,0,1-.2312-.0112.342.342,0,0,1-.1458-.0494.2006.2006,0,0,1-.0741-.1077.6457.6457,0,0,1-.018-.1751V25.6446h.7451v-.4892h-.7451Z"/><path d="M158.6232,24.0669h-.561v1.0885h-.597v.4892h.597v2.3318a1.3144,1.3144,0,0,0,.0493.4017.4691.4691,0,0,0,.1459.2289.5691.5691,0,0,0,.2581.1122,2.0909,2.0909,0,0,0,.3927.0314h.4377v-.4892H159.09a2.009,2.009,0,0,1-.2311-.0112.3322.3322,0,0,1-.1459-.0494.2012.2012,0,0,1-.0741-.1077.6457.6457,0,0,1-.0179-.1751V25.6446h.7451v-.4892h-.7451Z"/><path d="M191.4518,25.9543l-.0045.0112h-.02v-.81h-.5251v3.5952h.5588V27.1954a2.4479,2.4479,0,0,1,.0718-.6262,1.2119,1.2119,0,0,1,.2289-.4668.9924.9924,0,0,1,.4152-.294,1.6988,1.6988,0,0,1,.5992-.0987V25.115a1.3182,1.3182,0,0,0-.772.1952,1.6513,1.6513,0,0,0-.5521.6441"/><path d="M194.6252,29.6909a4.0661,4.0661,0,0,0,.2064-.4488l1.5732-4.0867h-.59l-1.0211,2.9736h-.04l-.0045-.0135-1.0593-2.96h-.6329l1.4341,3.5952-.0022.0067-.2469.61a.7188.7188,0,0,1-.202.2536.5051.5051,0,0,1-.3075.09.5871.5871,0,0,1-.1862-.0291c-.0494-.0157-.0988-.0315-.1459-.0472v.51a1.0506,1.0506,0,0,0,.1885.0449,1.6442,1.6442,0,0,0,.2087.0134,1.0659,1.0659,0,0,0,.3456-.0516.7721.7721,0,0,0,.2649-.1638,1.4031,1.4031,0,0,0,.2177-.2963"/><path d="M218.9914,12.9957v3.05h.57a3.52,3.52,0,0,0,1.904-.3571,1.2008,1.2008,0,0,0,.4885-1.0334,1.4627,1.4627,0,0,0-.5762-1.2151,3.1955,3.1955,0,0,0-1.9165-.4446Zm0-4.5284v2.5053h.4948a1.83,1.83,0,0,0,1.2276-.3445,1.1972,1.1972,0,0,0,.4009-.9457,1.091,1.091,0,0,0-.3821-.8831,1.7407,1.7407,0,0,0-1.1587-.3257Zm-2.2673,9.7394v-11.9h1.8727a9.469,9.469,0,0,1,2.38.213,3.1964,3.1964,0,0,1,1.7036,1.0522,2.7644,2.7644,0,0,1,.6326,1.81,2.647,2.647,0,0,1-.2882,1.2338,3.176,3.176,0,0,1-.9332,1.04,3.72,3.72,0,0,1,1.5846,1.2715,3.2421,3.2421,0,0,1,.5011,1.81,3.3723,3.3723,0,0,1-.52,1.8289,3.29,3.29,0,0,1-1.334,1.2339,5.1756,5.1756,0,0,1-2.2611.4071Z"/><path d="M229.4072,11.2169a2.2392,2.2392,0,0,0-1.7036.7265,2.61,2.61,0,0,0-.6764,1.8539,2.6631,2.6631,0,0,0,.6889,1.879,2.3611,2.3611,0,0,0,3.42.0125,2.674,2.674,0,0,0,.6889-1.8977,2.5715,2.5715,0,0,0-.6827-1.86,2.3,2.3,0,0,0-1.7349-.714m2.3237-1.8164h2.2109v8.8062h-2.2109v-.9332a4.3042,4.3042,0,0,1-1.2965.8831,3.6171,3.6171,0,0,1-1.4093.2693,3.9225,3.9225,0,0,1-2.95-1.3216,4.6319,4.6319,0,0,1-1.2463-3.2882,4.718,4.718,0,0,1,1.2025-3.3383,3.8284,3.8284,0,0,1,2.9249-1.3027,3.6582,3.6582,0,0,1,1.4844.3006,4.0915,4.0915,0,0,1,1.284.8956Z"/><polygon points="239.359 13.622 243.149 9.401 240.374 9.401 237.124 13.033 237.124 6.006 234.913 6.006 234.913 18.207 237.124 18.207 237.124 14.148 240.863 18.207 243.6 18.207 239.359 13.622"/><path d="M249.23,12.7013a2.1947,2.1947,0,0,0-.8643-1.1963,2.5519,2.5519,0,0,0-1.497-.4635,2.6141,2.6141,0,0,0-1.6221.52,2.7925,2.7925,0,0,0-.808,1.14Zm2.2109,1.7412H244.345a2.3461,2.3461,0,0,0,.8205,1.4906,2.6156,2.6156,0,0,0,1.7036.5574,2.9508,2.9508,0,0,0,2.13-.8643l1.86.8706a4.3835,4.3835,0,0,1-1.666,1.4593,5.2354,5.2354,0,0,1-2.3049.4761,4.5738,4.5738,0,0,1-3.3759-1.3091,4.4326,4.4326,0,0,1-1.3027-3.2694,4.6062,4.6062,0,0,1,1.2965-3.3446,4.3538,4.3538,0,0,1,3.2569-1.3278,4.5436,4.5436,0,0,1,3.3821,1.3278,4.776,4.776,0,0,1,1.2965,3.5137Z"/><path d="M252.2743,9.4005h1.8915v1.1086a2.3706,2.3706,0,0,1,.8142-.9958,1.93,1.93,0,0,1,1.1149-.3382,2.0172,2.0172,0,0,1,.8956.2254l-.6889,1.8978a1.4734,1.4734,0,0,0-.6389-.1942,1.0247,1.0247,0,0,0-.8643.6326,5.8206,5.8206,0,0,0-.3507,2.474l.0062.4259v3.57h-2.1921Z"/><polygon points="218.935 18.99 216.724 18.99 214.67 30.883 216.874 30.883 218.183 23.374 220.689 30.883 222.68 30.883 225.211 23.374 226.489 30.883 228.674 30.883 226.683 18.99 224.478 18.99 221.691 27.288 218.935 18.99"/><path d="M237.7373,23.8624l-1.8351,1.0084a2.7521,2.7521,0,0,0-2.2109-.9646,2.7493,2.7493,0,0,0-2.0043.7391,2.5247,2.5247,0,0,0-.7641,1.8915,2.4255,2.4255,0,0,0,.7391,1.8351,2.68,2.68,0,0,0,1.9353.714,2.8077,2.8077,0,0,0,2.3049-1.0083l1.7412,1.19a5.3638,5.3638,0,0,1-7.6349.4635,4.5924,4.5924,0,0,1,1.1086-7.2654,5.3573,5.3573,0,0,1,2.5616-.6138,5.2478,5.2478,0,0,1,2.355.52,4.5451,4.5451,0,0,1,1.7036,1.4907"/><polygon points="247.182 30.883 244.495 30.883 240.825 25.597 240.825 30.883 238.539 30.883 238.539 18.99 240.825 18.99 240.825 23.086 244.057 18.99 246.775 18.99 242.623 24.295 247.182 30.883"/><path d="M253.1512,25.3844a2.1944,2.1944,0,0,0-.8644-1.1963,2.5507,2.5507,0,0,0-1.4969-.4635,2.6149,2.6149,0,0,0-1.6222.52,2.7945,2.7945,0,0,0-.8079,1.14Zm2.2109,1.7411h-7.0963a2.3457,2.3457,0,0,0,.82,1.4907,2.5786,2.5786,0,0,0,1.7036.5512,2.9513,2.9513,0,0,0,2.13-.8644l1.86.8769a4.3835,4.3835,0,0,1-1.666,1.4593,5.2362,5.2362,0,0,1-2.3049.47A4.5738,4.5738,0,0,1,247.4328,29.8a4.4323,4.4323,0,0,1-1.3027-3.2694,4.6058,4.6058,0,0,1,1.2965-3.3445,4.3535,4.3535,0,0,1,3.2569-1.3279,4.5433,4.5433,0,0,1,3.3821,1.3279A4.8053,4.8053,0,0,1,255.3684,26.7Z"/><path d="M256.1325,22.0836h2.2109v.9019a5.4887,5.4887,0,0,1,1.3591-.8831,3.281,3.281,0,0,1,1.2464-.25,3.0306,3.0306,0,0,1,2.2235.9144,3.1349,3.1349,0,0,1,.7641,2.2986v5.8186h-2.1859V27.0316a9.6854,9.6854,0,0,0-.144-2.0919,1.4228,1.4228,0,0,0-.4948-.7892,1.3521,1.3521,0,0,0-.8644-.2693,1.65,1.65,0,0,0-1.1524.4509,2.3762,2.3762,0,0,0-.6639,1.24,10.315,10.315,0,0,0-.094,1.785V30.89h-2.2046Z"/><polygon points="271.672 30.883 264.55 30.883 268.527 23.956 265.158 23.956 265.158 22.084 271.897 22.084 267.945 29.017 271.672 29.017 271.672 30.883"/><path d="M282.4882,25.3844a2.1942,2.1942,0,0,0-.8643-1.1963,2.5509,2.5509,0,0,0-1.4969-.4635,2.6147,2.6147,0,0,0-1.6222.52,2.7937,2.7937,0,0,0-.808,1.14Zm2.211,1.7411h-7.0963a2.3457,2.3457,0,0,0,.8205,1.4907,2.5784,2.5784,0,0,0,1.7036.5512,2.9515,2.9515,0,0,0,2.13-.8644l1.86.8706a4.3833,4.3833,0,0,1-1.6661,1.4594,5.2363,5.2363,0,0,1-2.3048.476A4.5738,4.5738,0,0,1,276.77,29.8a4.4324,4.4324,0,0,1-1.3028-3.2694,4.6062,4.6062,0,0,1,1.2965-3.3445,4.3818,4.3818,0,0,1,3.2569-1.3341,4.5243,4.5243,0,0,1,3.3822,1.3341A4.8052,4.8052,0,0,1,284.7054,26.7Z"/><rect x="272.5234" y="22.0836" width="2.2109" height="8.7999"/><rect x="272.5234" y="19.6848" width="2.2047" height="1.666"/><rect x="285.2378" y="29.2112" width="2.0794" height="1.666"/><path d="M348.1869,18.5574h0a6.7886,6.7886,0,1,1,6.7884,6.8414,6.8617,6.8617,0,0,1-6.7884-6.8414m6.7884-7.5721a7.5721,7.5721,0,1,0,7.5933,7.5721,7.6575,7.6575,0,0,0-7.5933-7.5721"/><polygon points="326.275 11.314 325.439 11.314 332.323 26.13 332.407 26.13 339.291 11.314 339.291 11.314 338.454 11.314 334.261 20.347 332.365 24.541 330.48 20.347 326.275 11.314"/><polygon points="373.466 25.716 374.239 25.716 374.239 18.557 374.197 12.828 386.513 26.13 386.588 26.13 386.588 11.314 385.814 11.314 385.814 18.557 385.857 24.287 373.54 10.985 373.54 10.985 373.466 10.985 373.466 25.716"/><path d="M307.4246,20.9508h0l1.98-4.2679,1.8851-4.1938,1.9168,4.2044,1.9592,4.2679-7.7415-.0106Zm3.9078-9.9655h-.0847L304.364,25.7165h.8366l1.9169-4.13h8.3346l1.9274,4.1408h.8367l-6.8838-14.7418Z"/><polygon points="590.999 15.102 601.829 8.35 601.829 10.181 590.999 16.962 580.155 10.181 580.155 8.35 590.999 15.102"/><path d="M590.9991,6.6332a6.8921,6.8921,0,0,0-5.8226,3.1331h0a1.8511,1.8511,0,0,1,.2575-.2289,6.7577,6.7577,0,0,1,9.8284,1.23L596.85,9.752h0a7.1276,7.1276,0,0,0-5.8512-3.1188"/><path d="M590.9991,9.7663a3.9661,3.9661,0,0,0-3.2046,1.6452,3.2482,3.2482,0,0,1,1.9314-.63,3.5293,3.5293,0,0,1,2.9184,1.6166l1.5165-.9442h0a3.69,3.69,0,0,0-3.1617-1.6881"/><path d="M583.6744,7.02a9.7835,9.7835,0,0,1,14.1345,2.1173l.0286.0286L599.4827,8.15h0a10.1322,10.1322,0,0,0-16.9671,0,8.6658,8.6658,0,0,1,1.1588-1.13"/><path d="M531.2423,30.6819a1.085,1.085,0,0,1-.4148.3862,1.2827,1.2827,0,0,1-.63.1574,2.3551,2.3551,0,0,1-.4435-.0572.5338.5338,0,0,1-.3147-.186,1.1185,1.1185,0,0,1-.2289-.2861.9669.9669,0,0,1-.1-.3863.7666.7666,0,0,1,.186-.5722,1.0754,1.0754,0,0,1,.5007-.2861,4.3088,4.3088,0,0,1,.6724-.1288,6.4713,6.4713,0,0,1,.73-.0286v-.186a.6527.6527,0,0,0-.73-.73.6908.6908,0,0,0-.5436.1574.975.975,0,0,0-.2289.4148c-.0573,0-.1574-.0286-.186-.0286h-.186a.9123.9123,0,0,1,.3863-.6724,1.3632,1.3632,0,0,1,.8583-.2289,1.0117,1.0117,0,0,1,1.1445,1.1445v1.96h-.2861Zm-.0286-1.073c-.2575,0-.5007.0286-.73.0286a1.5441,1.5441,0,0,0-.5007.1.7335.7335,0,0,0-.3147.186.6094.6094,0,0,0-.1.3433.5494.5494,0,0,0,.1574.4149.6461.6461,0,0,0,.4721.1573.92.92,0,0,0,.4435-.1.9657.9657,0,0,0,.3147-.186.5986.5986,0,0,0,.186-.3147,1.802,1.802,0,0,0,.0572-.3863l.0143-.2432Z"/><path d="M532.673,28.1211h.2575l.1573.5007a1.6362,1.6362,0,0,1,.4435-.4435,1.2335,1.2335,0,0,1,.5723-.1574,1.06,1.06,0,0,1,.7868.2862,1.2759,1.2759,0,0,1,.2575.83V31.14h-.4149V29.2083a1.0038,1.0038,0,0,0-.1573-.6008.6184.6184,0,0,0-.5007-.186.92.92,0,0,0-.4435.1.6336.6336,0,0,0-.2862.2576.7672.7672,0,0,0-.1573.3862,2.6178,2.6178,0,0,0-.0286.4721v1.4879h-.4435l-.0429-3.0043Z"/><path d="M561.5285,30.1382a1.127,1.127,0,0,1-.3863.7869,1.3109,1.3109,0,0,1-.8584.3147,1.1322,1.1322,0,0,1-.6008-.1287,2.4763,2.4763,0,0,1-.4435-.3148,1.661,1.661,0,0,1-.2575-.5007,2.2276,2.2276,0,0,1-.1-.63,1.76,1.76,0,0,1,.1-.6294,1.4969,1.4969,0,0,1,.2575-.5007,1.401,1.401,0,0,1,.4435-.3434,1.1638,1.1638,0,0,1,.6008-.1287,1.1221,1.1221,0,0,1,.4721.1,1.315,1.315,0,0,1,.3863.2289,1.3769,1.3769,0,0,1,.2575.3147.8488.8488,0,0,1,.1.4435h-.4434a.859.859,0,0,0-.2289-.5007.8048.8048,0,0,0-.5437-.186.8478.8478,0,0,0-.4435.1c-.1287.0572-.186.1573-.2861.2575a1.5648,1.5648,0,0,0-.1574.3862,2.1688,2.1688,0,0,0-.0286.4435c0,.1574.0286.3148.0286.4435a1.1033,1.1033,0,0,0,.1574.3863.5627.5627,0,0,0,.2861.2575,1.0153,1.0153,0,0,0,.4435.1.6585.6585,0,0,0,.5437-.186,1.6679,1.6679,0,0,0,.2575-.5007l.4435-.0144Z"/><path d="M563.56,31.2255a1.1322,1.1322,0,0,1-.6008-.1287,2.4763,2.4763,0,0,1-.4435-.3148,1.661,1.661,0,0,1-.2575-.5007,2.2276,2.2276,0,0,1-.1-.63,1.8133,1.8133,0,0,1,.1-.6294,1.4969,1.4969,0,0,1,.2575-.5007.7746.7746,0,0,1,.4435-.3148,1.4669,1.4669,0,0,1,1.2017,0,2.48,2.48,0,0,1,.4435.3148,2.7469,2.7469,0,0,1,.2575.5007,2.23,2.23,0,0,1,.1.6294,1.8166,1.8166,0,0,1-.1.63,1.4987,1.4987,0,0,1-.2575.5007.8807.8807,0,0,1-.4435.3148A1.4171,1.4171,0,0,1,563.56,31.2255Zm0-.3863a.8485.8485,0,0,0,.4435-.1.6326.6326,0,0,0,.2861-.2575,1.5578,1.5578,0,0,0,.1574-.3863,2.3116,2.3116,0,0,0,.0286-.4435c0-.1573-.0286-.3147-.0286-.4435a1.5571,1.5571,0,0,0-.1574-.3862.5623.5623,0,0,0-.2861-.2575,1.0136,1.0136,0,0,0-.4435-.1.848.848,0,0,0-.4435.1c-.1287.0572-.1859.1573-.2861.2575a.7682.7682,0,0,0-.1574.3862,2.3126,2.3126,0,0,0-.0286.4435c0,.1574.0286.3148.0286.4435a1.2111,1.2111,0,0,0,.1574.3863,1.2323,1.2323,0,0,0,.2861.2575A.7551.7551,0,0,0,563.56,30.8392Z"/><path d="M569.5828,31.154v-1.96c0-.2575-.0286-.4721-.1573-.5722a.5574.5574,0,0,0-.4721-.186,1.4773,1.4773,0,0,0-.3148.0572.5444.5444,0,0,0-.2575.186.6547.6547,0,0,0-.186.2861,1.3792,1.3792,0,0,0-.0572.3863V31.154h-.4435v-1.96a.7622.7622,0,0,0-.1574-.5722.5571.5571,0,0,0-.4721-.186.5145.5145,0,0,0-.3147.1.8493.8493,0,0,0-.2575.1859.6.6,0,0,0-.186.3148,1.8593,1.8593,0,0,0-.0572.4435v1.6452h-.4435V28.15h.2575l.1574.4721a1.1524,1.1524,0,0,1,.4149-.4149.939.939,0,0,1,.5436-.1574.91.91,0,0,1,.5722.1574.7754.7754,0,0,1,.3148.4435,1.5355,1.5355,0,0,1,.4148-.4435.9508.9508,0,0,1,.6009-.1574,1.0749,1.0749,0,0,1,.73.2576,1.1787,1.1787,0,0,1,.2575.7868v2.06Z"/><path d="M570.9991,28.1211h.2862l.1573.4435a1.2417,1.2417,0,0,1,.4435-.4149,1.1466,1.1466,0,0,1,.5723-.1574,1.0283,1.0283,0,0,1,.5722.1288,1.5626,1.5626,0,0,1,.4149.3433,2.7534,2.7534,0,0,1,.2575.5007,3.7617,3.7617,0,0,1,.1.6009,1.7631,1.7631,0,0,1-.1.63,1.5007,1.5007,0,0,1-.2575.5007.8118.8118,0,0,1-.4149.3147,1.2722,1.2722,0,0,1-1.1159,0,1.237,1.237,0,0,1-.4435-.3863v1.588h-.4435V28.0352h-.0286Zm.4149,1.4592c0,.186.0286.3863.0286.5007a1.7851,1.7851,0,0,0,.1574.4149,1.23,1.23,0,0,0,.2861.2575,1.0154,1.0154,0,0,0,.4435.1.72.72,0,0,0,.6724-.3147,1.4829,1.4829,0,0,0,.2289-.887,1.4533,1.4533,0,0,0-.2575-.8869.8646.8646,0,0,0-.6724-.3148.81.81,0,0,0-.4149.1.923.923,0,0,0-.3147.2575.7016.7016,0,0,0-.186.3862C571.4426,29.2513,571.414,29.4086,571.414,29.58Z"/><path d="M576.4212,30.6819a1.0853,1.0853,0,0,1-.4149.3862,1.2827,1.2827,0,0,1-.63.1574,2.3551,2.3551,0,0,1-.4435-.0572.5341.5341,0,0,1-.3147-.186,1.1185,1.1185,0,0,1-.2289-.2861.9685.9685,0,0,1-.1-.3863.767.767,0,0,1,.186-.5722,1.0754,1.0754,0,0,1,.5007-.2861,4.3088,4.3088,0,0,1,.6724-.1288,6.4713,6.4713,0,0,1,.73-.0286v-.186a.6526.6526,0,0,0-.73-.73.6908.6908,0,0,0-.5436.1574.6615.6615,0,0,0-.2289.4148c-.0572,0-.1574-.0286-.186-.0286h-.186a.9126.9126,0,0,1,.3863-.6724,1.3633,1.3633,0,0,1,.8584-.2289,1.0118,1.0118,0,0,1,1.1445,1.1445v1.96H576.55Zm0-1.073c-.2575,0-.5008.0286-.73.0286a1.5452,1.5452,0,0,0-.5007.1.7341.7341,0,0,0-.3147.186.61.61,0,0,0-.1.3433.55.55,0,0,0,.1574.4149.6462.6462,0,0,0,.4721.1573.92.92,0,0,0,.4435-.1.9647.9647,0,0,0,.3147-.186.5986.5986,0,0,0,.186-.3147,1.802,1.802,0,0,0,.0572-.3863l.0144-.2432Z"/><path d="M577.88,28.1211h.2575l.1574.5007a1.6348,1.6348,0,0,1,.4435-.4435.9667.9667,0,0,1,.5722-.1574,1.06,1.06,0,0,1,.7868.2862,1.2759,1.2759,0,0,1,.2576.83V31.14h-.4435V29.2083a1.0038,1.0038,0,0,0-.1574-.6008.6182.6182,0,0,0-.5007-.186.92.92,0,0,0-.4435.1.6328.6328,0,0,0-.2861.2576,2.1855,2.1855,0,0,0-.1574.3862,2.6178,2.6178,0,0,0-.0286.4721v1.4879h-.4435l-.0143-3.0043Z"/><path d="M581.1136,32.2412c0-.0572.0286-.1287.0286-.1859s.0286-.1288.0286-.186c.0286.0286.1.0286.1574.0286s.1287.0286.186.0286a.7662.7662,0,0,0,.2289-.0572c.0572-.0286.1-.1.1573-.1574a1.0839,1.0839,0,0,0,.1288-.2575c.0286-.1.1-.2289.1573-.3863-.1859-.5007-.4148-1.0157-.6008-1.4878s-.4149-1.0157-.63-1.4878h.5007c.1574.4148.3148.8583.5007,1.23.1574.4149.3148.83.5008,1.23.1573-.4149.3147-.8583.4721-1.23.1573-.4149.3147-.83.4721-1.23h.4721c-.186.5436-.4149,1.0729-.6009,1.5879-.186.5437-.4435,1.073-.63,1.588a3.9488,3.9488,0,0,0-.1573.4149,2.0363,2.0363,0,0,1-.186.3147.4834.4834,0,0,1-.2575.186,1.3792,1.3792,0,0,1-.3863.0572.7107.7107,0,0,1-.2575-.0286C581.2709,32.2412,581.1708,32.27,581.1136,32.2412Z"/><path d="M549.3968,32.3271a7.5764,7.5764,0,0,1-9.1273-.6438c-.1-.1-.0286-.2289.1288-.1574a10.1424,10.1424,0,0,0,5.0357,1.3019,10.628,10.628,0,0,0,3.8341-.7582C549.4255,32.0123,549.5828,32.1983,549.3968,32.3271Z"/><path d="M549.8689,31.8264c-.1573-.186-.9442-.1-1.3018-.0286-.1.0286-.1288-.1-.0286-.1574a1.9786,1.9786,0,0,1,1.8025-.1574,1.8349,1.8349,0,0,1-.6294,1.6452c-.1.1-.186.0286-.1574-.0572C549.7116,32.7134,549.9977,32.0123,549.8689,31.8264Z"/><path d="M548.5671,28.5646v-.4435a.09.09,0,0,1,.1-.1h1.9314a.09.09,0,0,1,.1.1v.3862a.4707.4707,0,0,1-.1574.2576l-1.0157,1.3876a2.1221,2.1221,0,0,1,1.1159.2289c.1.0287.1.1.1.1574v.4435a.1143.1143,0,0,1-.1574.1,2.2712,2.2712,0,0,0-2.06,0,.1223.1223,0,0,1-.1574-.1v-.4435a.3847.3847,0,0,1,.1-.2861l1.1731-1.6452h-.9728C548.6386,28.65,548.5671,28.6218,548.5671,28.5646Z"/><path d="M541.4712,31.2255H540.87a.09.09,0,0,1-.1-.1V28.1783a.1156.1156,0,0,1,.1288-.1h.5436a.09.09,0,0,1,.1.1v.3863h.0286a.7751.7751,0,0,1,.7868-.5437.7863.7863,0,0,1,.7869.5437.8382.8382,0,0,1,.83-.5437.9381.9381,0,0,1,.701.3148,1.5261,1.5261,0,0,1,.1574.9156v1.8741c0,.0572-.0572.1-.1288.1h-.6008a.09.09,0,0,1-.1-.1v-1.588a1.6944,1.6944,0,0,0-.0286-.5437.314.314,0,0,0-.3433-.2575.3649.3649,0,0,0-.3434.2575,1.8547,1.8547,0,0,0-.0572.5723v1.588c0,.0572-.0286.1-.1288.1h-.6008a.09.09,0,0,1-.1-.1V29.566c0-.3147.0573-.83-.3862-.83s-.4149.4721-.4149.83v1.588A.195.195,0,0,1,541.4712,31.2255Z"/><path d="M552.4441,27.9637c.8869,0,1.359.73,1.359,1.6452a1.4657,1.4657,0,0,1-1.359,1.6166c-.8584,0-1.3305-.73-1.3305-1.6452C551.1136,28.6933,551.5857,27.9637,552.4441,27.9637Zm0,.63c-.4435,0-.4722.5722-.4722.9442s0,1.1445.4435,1.1445.4721-.6009.4721-1.0158a2.8966,2.8966,0,0,0-.1-.7868C552.7588,28.65,552.63,28.5932,552.4441,28.5932Z"/><path d="M554.9333,31.2255h-.6008a.09.09,0,0,1-.1-.1V28.1783c0-.0572.0572-.1.1288-.1h.5436a.09.09,0,0,1,.1.1v.4435h.0286a.7728.7728,0,0,1,.7868-.6009.823.823,0,0,1,.701.3434,1.8016,1.8016,0,0,1,.1574.9156V31.154a.1156.1156,0,0,1-.1288.1h-.6008a.09.09,0,0,1-.1-.1V29.566c0-.3147.0286-.7868-.3862-.7868a.3648.3648,0,0,0-.3434.2575,1.1051,1.1051,0,0,0-.1.5436v1.588C555.0335,31.154,555.0049,31.2255,554.9333,31.2255Z"/><path d="M548.0378,30.6247a.905.905,0,0,1-.2289-.5437v-.887c0-.3862.0286-.73-.2576-.9871a1.5242,1.5242,0,0,0-.8869-.2861,1.2228,1.2228,0,0,0-1.3305.887c0,.1.0572.1.1.1287l.5723.0572c.0572,0,.0572-.0286.1-.1.0286-.2575.2575-.3433.4721-.3433a.362.362,0,0,1,.3148.1573c.1287.1.1.2575.1.4149v.1a3.4486,3.4486,0,0,0-1.1159.186.9578.9578,0,0,0-.6294.9442.8331.8331,0,0,0,.8869.887,1.1877,1.1877,0,0,0,.9872-.4149,2.08,2.08,0,0,0,.3433.3863c.0572,0,.1288,0,.1574-.0286a1.9017,1.9017,0,0,0,.4149-.4149A.1277.1277,0,0,0,548.0378,30.6247Zm-.9872-.83a1.188,1.188,0,0,1-.1.6009.5147.5147,0,0,1-.4149.2575.3762.3762,0,0,1-.3863-.4149c0-.5007.4435-.5723.887-.5723v.1288Z"/><path d="M540.2981,30.6247a.9056.9056,0,0,1-.2289-.5437v-.887c0-.3862.0286-.73-.2575-.9871a1.5243,1.5243,0,0,0-.887-.2861,1.2227,1.2227,0,0,0-1.33.887c0,.1.0572.1.1.1287l.5723.0572c.0572,0,.0572-.0286.1-.1.0286-.2575.2575-.3433.4721-.3433a.4.4,0,0,1,.3147.1573c.0859.1.0573.2575.0573.4149v.1a3.4477,3.4477,0,0,0-1.1159.186.9578.9578,0,0,0-.63.9442.8332.8332,0,0,0,.887.887,1.1874,1.1874,0,0,0,.9871-.4149,2.0848,2.0848,0,0,0,.3434.3863c.0572,0,.1287,0,.1573-.0286a3.0384,3.0384,0,0,0,.4435-.4149C540.341,30.7391,540.341,30.6819,540.2981,30.6247Zm-1.0443-.83a1.187,1.187,0,0,1-.1.6009.5146.5146,0,0,1-.4148.2575.3762.3762,0,0,1-.3863-.4149c0-.5007.4435-.5723.887-.5723l.0143.1288Z"/><path d="M538.4383,20.6962V14.23h2.1173v6.3949a1.8871,1.8871,0,0,0,2.0315,1.9313c1.588,0,2.1173-.9442,2.1173-1.4879V14.23h2.1173V24.2727h-1.23l-.83-1.1445a3.6389,3.6389,0,0,1-2.9184,1.3305C539.826,24.473,538.4383,23.1425,538.4383,20.6962Z"/><path d="M562.5156,10.6962V24.287h1.2017l.7868-1.1445a3.6542,3.6542,0,0,0,2.9185,1.3591c1.8741,0,3.4478-1.1445,3.4478-3.6767V17.7205a3.3323,3.3323,0,0,0-3.5479-3.6767,3.4711,3.4711,0,0,0-2.7611,1.2017V10.6819l-2.0458.0143ZM566.8217,22.57c-1.3018,0-2.246-.63-2.2174-2.0029h0V17.8063a1.9953,1.9953,0,0,1,2.246-1.9027,1.9121,1.9121,0,0,1,1.96,1.9027v2.8184A1.9269,1.9269,0,0,1,566.8217,22.57Z"/><path d="M554.59,10.6962V15.26a3.4264,3.4264,0,0,0-2.7611-1.2017,3.3322,3.3322,0,0,0-3.5479,3.6767v3.1044a3.3078,3.3078,0,0,0,3.4477,3.6767,3.72,3.72,0,0,0,2.9185-1.3591l.7868,1.1445h1.2018V10.7105H554.59v-.0143Zm-4.249,9.9714V17.8493a1.9208,1.9208,0,0,1,1.96-1.9028c1.3877,0,2.2461.7869,2.2461,1.9028V20.61h0c.0286,1.3591-.9156,2.0029-2.2175,2.0029A1.9918,1.9918,0,0,1,550.341,20.6676Z"/><path d="M572.301,10.6962h2.1173V24.287H572.301Z"/><rect x="558.5528" y="14.2441" width="2.1173" height="10.0429"/><circle cx="559.6257" cy="11.8264" r="1.2017"/><path d="M580.2552,22.57c-1.4592,0-2.16-.7582-2.16-1.8026v-.83h6.2661V17.6919c0-2.3176-1.6166-3.6767-4.12-3.6767-2.6037,0-4.2775,1.4592-4.2775,3.7339v3.1045c0,2.3175,1.6738,3.6766,4.2775,3.6766,1.9313,0,3.3619-.7868,3.9342-2.1173l-1.5165-.9442A2.7445,2.7445,0,0,1,580.2552,22.57Zm-2.16-4.85c0-1.0443.73-1.774,2.0887-1.774s2.0887.73,2.0887,1.774v.63h-4.1488l-.0286-.63Z"/><path d="M532.9877,14.0152c-2.06,0-3.3906.83-3.8913,2.06l1.6452,1.0157a2.1748,2.1748,0,0,1,2.2461-1.1731c1.3018,0,1.8741.6009,1.8741,1.588v.7869h-1.7883c-1.3018,0-4.4921.4434-4.4921,3.2045,0,1.96,1.4878,2.9471,3.29,2.9471a4.0516,4.0516,0,0,0,3.0758-1.3591l.83,1.1445h1.23V17.3485C536.9791,15.4458,535.6486,14.0152,532.9877,14.0152Zm1.86,7.0673a1.0932,1.0932,0,0,1-.2289.6008,2.7032,2.7032,0,0,1-2.0887.887c-1.0157,0-1.7454-.4149-1.7454-1.23,0-1.2018,1.9314-1.4593,3.1617-1.5165h.9156l-.0143,1.259Z"/><path d="M452.0211,15.001h-1.5654V11.7137h-2.3578V15.001h-1.5458v2.0938h1.5458v8.0324h2.3578V17.0948h1.5654V15.001Zm4.97-.3032a5.3113,5.3113,0,0,0-5.244,5.3223,5.4318,5.4318,0,0,0,1.4871,3.7569,4.9755,4.9755,0,0,0,3.7961,1.6241,5.13,5.13,0,0,0,3.8254-1.585,5.2591,5.2591,0,0,0,1.5067-3.8449,5.3781,5.3781,0,0,0-1.6632-3.8157A5.1627,5.1627,0,0,0,456.9912,14.6978Zm.049,8.3552a2.76,2.76,0,0,1-2.8667-3.0525,2.8681,2.8681,0,1,1,5.7333-.0587A2.7887,2.7887,0,0,1,457.04,23.053ZM429.5285,11.792l-5.6354,13.5308h2.759l1.4871-3.61h4.8429l1.3991,3.61h2.759l-5.655-13.5308Zm-.5479,7.5921,1.4969-4.06h.0391l1.5556,4.06Zm14.5287.01c0,2.4557-.4891,3.7178-2.2111,3.7178-1.7317,0-2.0937-1.174-2.0937-3.5612V15.001h-2.3774v5.87c0,2.9448,1.4382,4.53,3.9428,4.53a3.1789,3.1789,0,0,0,2.72-1.36v1.086h2.3383V15.001h-2.3188v4.3929Zm57.7335-4.6961A5.1966,5.1966,0,0,0,497.4663,16.4a5.2513,5.2513,0,0,0-1.4382,3.6787,5.4745,5.4745,0,0,0,1.5067,3.7373,5.2423,5.2423,0,0,0,8.6977-1.9078h-2.5438a2.7255,2.7255,0,0,1-2.4165,1.2621,2.5713,2.5713,0,0,1-2.8079-2.3578h8.1106c0-.1664.02-.3425.02-.5088a5.2864,5.2864,0,0,0-.9588-3.3167A5.3446,5.3446,0,0,0,501.2428,14.6978Zm-2.69,4.2461a2.7932,2.7932,0,0,1,2.7-2.0742,2.689,2.689,0,0,1,2.8079,2.0742Zm10.7621-2.7688V15.001h-2.2112V25.1272h2.3579V19.9614c0-1.8883.43-2.759,2.4557-2.9058V14.8445A3.1022,3.1022,0,0,0,509.3144,16.1751Zm-16.1529-.362a4.607,4.607,0,0,0-3.15-1.0566,5.0182,5.0182,0,0,0-3.4928,1.34,5.3352,5.3352,0,0,0-1.7317,3.9428,5.4151,5.4151,0,0,0,1.9078,4.1679,4.9761,4.9761,0,0,0,3.3167,1.1936,4.8128,4.8128,0,0,0,3.15-1.0958v.8316H495.48V11.7137h-2.3187Zm-2.8666,7.24a2.934,2.934,0,0,1-3.0525-2.984,2.9857,2.9857,0,0,1,2.9449-3.0036,2.8966,2.8966,0,0,1,2.8861,3.0329A2.85,2.85,0,0,1,490.2949,23.053Zm-8.6488-6.829a3.5191,3.5191,0,0,0-3.19-1.4871A4.8661,4.8661,0,0,0,474.7,16.3023a5.32,5.32,0,0,0-1.448,3.7178,5.1867,5.1867,0,0,0,5.2636,5.3419c1.5654,0,2.5829-.45,3.15-1.4676v1.2328h2.28V15.001h-2.2992Zm-3.0623,6.7605a2.9205,2.9205,0,0,1-2.9253-3.0036,2.8894,2.8894,0,0,1,2.8862-2.9057,2.9741,2.9741,0,0,1,2.847,3.0231A2.9092,2.9092,0,0,1,478.5838,22.9845Zm-9.1966-11.2708h-9.2554v2.3579h3.3167V25.1272h2.622V14.0716h3.3167V11.7137Zm3.8645,3.1308a3.0929,3.0929,0,0,0-2.6024,1.3208v-1.174h-2.2111V25.1272h2.3578V19.9614c0-1.8883.43-2.759,2.4557-2.9058Z"/><path d="M418.8055,25.313h.1272a2.8033,2.8033,0,0,0,2.6123-1.8l1.7219-4.1287H405.92l-2.485,5.9387h15.37Z"/><path d="M411.0275,11.792H410.9a2.8031,2.8031,0,0,0-2.6122,1.8l-1.7219,4.1287h17.3366l2.4851-5.9387-15.36.01Z"/><path d="M418.7762,25.313h.1272a2.8031,2.8031,0,0,0,2.6122-1.8l1.722-4.1287H405.8911l-2.4851,5.9387h15.37Z"/><path d="M410.9982,11.792h-.1272a2.8033,2.8033,0,0,0-2.6123,1.8l-1.7219,4.1287h17.3465l2.485-5.9387-15.37.01Z"/><path d="M637.7734,21.7271h-1.2456v.9184h1.2605a.4947.4947,0,0,0,.5019-.4573A.5024.5024,0,0,0,637.7734,21.7271Z"/><path d="M633.0105,14.5586a.497.497,0,0,0-.5169-.4574h-1.2455V15.02h1.26A.5008.5008,0,0,0,633.0105,14.5586Z"/><path d="M633.3191,21.7383h-1.2084v1.0039h1.2046a.504.504,0,0,0,.5429-.502A.4963.4963,0,0,0,633.3191,21.7383Z"/><polygon points="616.428 15.663 617.658 15.663 617.045 14.138 616.428 15.663"/><polygon points="641.369 14.138 640.755 15.663 641.982 15.663 641.369 14.138"/><path d="M650.2292,25.1106h-2.3239v-.9481h2.1826c.3234,0,.461-.1747.461-.3644,0-.1822-.1376-.3681-.461-.3681h-.9853a1.2193,1.2193,0,0,1-1.3349-1.305c0-.699.4388-1.372,1.71-1.372H651.56V.0132H614.4681V37.1016h37.0884V24.2778A1.2952,1.2952,0,0,1,650.2292,25.1106Zm-6.1313-11.9872h1.3869l1.77,2.74v-2.74h1.09v4.3613h-1.3423l-1.8144-2.8109v2.8109h-1.09Zm-3.4206,0h1.42l1.8739,4.3613H642.726l-.3458-.8737h-2.0115l-.3458.8737h-1.22l1.874-4.3613Zm-2.3164,0h1.2046V14.157h-1.2493a1.05,1.05,0,0,0-1.0187,1.1749,1.0666,1.0666,0,0,0,1.1749,1.1973h.2863l-.4573.9518H638.06a1.9182,1.9182,0,0,1-1.8665-2.16A2.0009,2.0009,0,0,1,638.3609,13.1234Zm-3.8074,0h1.1117v4.3613h-1.1117Zm-4.3949,0h2.4243a1.4115,1.4115,0,0,1,1.5244,1.4128,1.3253,1.3253,0,0,1-1.1972,1.3386l1.4352,1.6062h-1.3311l-1.3088-1.55h-.4573v1.55h-1.09Zm-11.76,4.3576-.3458-.8737h-2.0115l-.3458.8737h-1.22L616.35,13.12h1.42l1.874,4.3614Zm2.4651-3.2125V17.481h-1.0894V13.1234l1.7364.0074,1.0076,2.8109.9853-2.8183h1.7215v4.3613h-1.0894V14.2723l-1.1564,3.2124h-.9555Zm5.1087,7.4586h-2.4539v.7474h2.3982v.9184h-2.3982v.7733h2.4539v.9444h-3.5582V20.753h3.5582Zm0-8.6037h3.5546v.9741h-2.454v.7474h2.3982v.9183h-2.3982v.7734h2.454v.9481h-3.5583V13.1234Zm4.8894,11.9872h-1.372l-1.0262-1.3422-1,1.3422H626.11l1.7326-2.1528-1.7735-2.2048h1.372l1.0559,1.3645,1.06-1.3645h1.32l-1.7512,2.1788Zm2.3945-1.3757H632.107v1.3757h-1.1192V20.753h2.4093a1.4337,1.4337,0,0,1,1.5654,1.4649A1.5071,1.5071,0,0,1,633.2559,23.7349Zm5.038,1.3757-1.3088-1.55h-.4573v1.55h-1.0894V20.753h2.4242a1.4116,1.4116,0,0,1,1.5245,1.4129,1.3252,1.3252,0,0,1-1.1973,1.3385l1.4352,1.6062Zm5.105-3.3835H640.945v.7474h2.387v.9184h-2.387v.7733h2.4539v.9444h-3.5582V20.753h3.5582Zm2.8295,3.3835h-2.3238v-.9481h2.1825c.3235,0,.4611-.1747.4611-.3644,0-.1822-.1376-.3681-.4611-.3681h-.9853a1.2193,1.2193,0,0,1-1.3348-1.305c0-.699.4388-1.372,1.71-1.372H647.6l-.4573.9816h-1.8368c-.3495,0-.4573.1859-.4573.3606a.3789.3789,0,0,0,.4016.3793h1.0336a1.1955,1.1955,0,0,1,1.3683,1.253A1.31,1.31,0,0,1,646.2284,25.1106Z"/><path d="M649.3033,21.7346c-.35,0-.4573.1859-.4573.3606a.3789.3789,0,0,0,.4016.3793h1.0336a1.2335,1.2335,0,0,1,1.279.725V20.8459l-.4164.8924h-1.8405Z"/><path d="M678.79,19.2368h-3.1862l1.71-5.5524Zm-4.85,6.1147,1.1011-3.6547h4.3108l1.0308,3.6547h3.9828l-3.9828-13.9162a1.4707,1.4707,0,0,0-1.5931-1.1948h-5.6461v1.312h.4685c.5857,0,.9137.2342.9137.6794a3.6418,3.6418,0,0,1-.3045,1.2182l-3.9593,11.9014Z"/><path d="M688.9572,25.3515V11.3885a1.0594,1.0594,0,0,0-1.1245-1.1714h-3.5142V11.529h.2343c.5857,0,.8434.2577.8434.8434V25.3515Z"/><path d="M695.0016,25.3515V11.3885a1.0709,1.0709,0,0,0-1.1245-1.1714h-3.4908V11.529h.2343c.5857,0,.8434.2577.8434.8434V25.3515Z"/><path d="M701.21,11.5993c0-1.0074-.75-1.64-2.0382-1.64s-2.0382.6091-2.0382,1.64.7731,1.64,2.0382,1.64,2.0382-.6091,2.0382-1.64m-.07,13.7522V15.1838a1.048,1.048,0,0,0-1.148-1.148h-3.4439v1.2886h.2108c.5857,0,.8434.2811.8434.8668v9.1837H701.14Z"/><path d="M708.9413,19.9162v2.2023a2.892,2.892,0,0,1-1.9211.9839c-.6092,0-.8669-.3045-.8669-1.1714s.1875-1.2182.82-1.4759a8.1686,8.1686,0,0,1,1.968-.5389m-4.7793-2.6473a8.5533,8.5533,0,0,1,3.4907-.89c.9606,0,1.2886.3514,1.2886,1.3354v.2577c-1.4526.2343-1.8977.328-2.7177.5154a6.3384,6.3384,0,0,0-1.3354.4217,3.2725,3.2725,0,0,0-2.1085,3.3737c0,2.1553.9371,3.1862,2.8582,3.1862a5.2419,5.2419,0,0,0,1.8977-.3515,6.5223,6.5223,0,0,0,1.5228-.9839v.164a.9392.9392,0,0,0,1.0777,1.0542h3.233V24.1333h-.164c-.6091,0-.8434-.2812-.8434-1.0074V17.7374c0-2.8816-1.0074-3.889-3.889-3.889a11.81,11.81,0,0,0-2.7176.328,9.1393,9.1393,0,0,0-2.4131.9137Z"/><path d="M718.5467,25.3515V17.6906a2.4728,2.4728,0,0,1,1.8977-.9606c.75,0,.9371.3046.9371,1.4291v7.1924h3.5376V17.6437c0-1.8039-.1406-2.3662-.7028-2.9753a2.6912,2.6912,0,0,0-2.132-.7966,4.87,4.87,0,0,0-3.6782,1.6634V15.09a.9725.9725,0,0,0-1.1011-1.0777h-3.3736v1.2885h.2109c.5857,0,.8434.2812.8434.8669v9.1837Z"/><path d="M735.4148,22.9853h-4.9433l4.7325-6.63V14.0124h-7.4033c-.8434,0-1.2182.3748-1.2182,1.2183v2.0616h1.3119v-.2108q0-.7732.8435-.7732h2.5536l-4.8027,6.7238v2.3428h8.9026Z"/><path d="M753.97,25.07V12.2553c0-1.0308-.3748-1.3588-1.3588-1.3588h-2.9988v1.4291H749.8c.6794,0,.82.164.82.984V25.07Zm1.4994,0h3.3268V15.09c0-1.0074-.3983-1.3588-1.3588-1.3588h-1.968V25.07Zm-6.3255,0V13.7313h-1.968c-.9839,0-1.3588.3514-1.3588,1.3588v9.98Zm12.7916-6.513a9.6528,9.6528,0,1,1-19.3046,0,9.6528,9.6528,0,1,1,19.3046,0m1.9914,0a11.62,11.62,0,0,0-23.24,0,11.62,11.62,0,1,0,23.24,0"/><path d="M802.1244,14.1828H801.43c-.266-.31-.4877-.606-.7389-.9163-.3547-.4434-.6947-.872-1.0494-1.3154-.0886-.0886-.133-.1773-.2216-.266-.2661-.266-.2661-.266-.606-.266v1.1823c0,.266-.0443,1.0937.2217,1.271a.7993.7993,0,0,0,.4434.0887h.1773v.2217c-.4434,0-.8719-.0443-1.3153-.0443a13.05,13.05,0,0,0-1.3154.0443v-.2217h.1774a.8.8,0,0,0,.4434-.0887c.266-.1773.2216-1.005.2216-1.271V9.8377c0-.31.0444-1.138-.266-1.3153-.133-.0444-.266-.0444-.399-.0887h-.1774V8.212c.4434,0,.872.0443,1.3154.0443.4877,0,.9606-.0443,1.404-.0443a2.5752,2.5752,0,0,1,1.404.266,1.3518,1.3518,0,0,1,.606,1.2267,1.4017,1.4017,0,0,1-.8277,1.3153,2.38,2.38,0,0,1-.7833.2217l1.9657,2.276a1.066,1.066,0,0,0,.8276.4434v.2217Zm-2.66-5.69a2.9316,2.9316,0,0,0-.606.0443c-.0886.0444-.0886.1331-.0886.2217v2.4977h.266c.4877,0,1.271-.0887,1.537-.532a1.55,1.55,0,0,0,.1774-.739C800.7352,9.0988,800.3805,8.4928,799.4642,8.4928Z"/><path d="M805.1985,14.3158a2.0978,2.0978,0,0,1-2.143-2.0543,2.0613,2.0613,0,0,1,2.143-2.01,2.13,2.13,0,0,1,2.1873,2.01A2.0813,2.0813,0,0,1,805.1985,14.3158Zm0-3.8574c-.9606,0-1.271.9607-1.271,1.7883s.2217,1.877,1.271,1.877c1.005,0,1.2267-.9607,1.2267-1.7883C806.47,11.4634,806.2478,10.4584,805.1985,10.4584Z"/><path d="M811.0658,10.9018c-.1773.3547-.31.739-.4877,1.0937l-1.1823,2.7637c-.0887.1773-.31.6946-.31.6946-.0887.2217-.31.739-.65.739a.2556.2556,0,0,1-.266-.2661c0-.31.266-.399.4877-.4877.2661-.133.31-.31.3991-.6059l.31-.739-1.3153-3.0593c-.1774-.399-.2217-.4877-.606-.532v-.1774h1.9213v.2217c-.2217.0443-.532-.0443-.532.266a4.0438,4.0438,0,0,0,.31.9607l.606,1.4927.6946-1.7144a2.1411,2.1411,0,0,0,.2217-.739c0-.266-.31-.266-.4877-.266v-.2217h1.2562v.2217C811.1988,10.5471,811.1988,10.6358,811.0658,10.9018Z"/><path d="M814.9971,14.2715a.71.71,0,0,1-.739-.5764,2.4064,2.4064,0,0,1-1.4927.65.8151.8151,0,0,1-.9163-.7833c0-.739.6946-1.0494,1.3154-1.3154l.65-.31c.0886-.0444.31-.1331.3547-.2217a.3326.3326,0,0,0,.0443-.2217c0-.65-.0887-1.0493-.7833-1.0493-.4434,0-.7833.0443-.8276.532-.0444.2217-.1331.399-.3547.399a.303.303,0,0,1-.31-.31c0-.6946,1.1823-.7833,1.67-.7833.872,0,1.4484.2217,1.4484,1.1823v1.7144c0,.2217,0,.6946.31.6946a.3948.3948,0,0,0,.3547-.2217l.1773.0887A1.23,1.23,0,0,1,814.9971,14.2715Zm-.7833-2.32a3.4279,3.4279,0,0,0-.739.3547c-.399.2217-.8276.4877-.8276.9607a.5964.5964,0,0,0,.5764.65,1.5057,1.5057,0,0,0,1.005-.5321l-.0148-1.4336Z"/><path d="M817.1548,14.1828a7.6288,7.6288,0,0,0-1.0049.0443v-.2217c.5763-.0443.6059-.0886.6059-.65v-3.68c0-.266.0443-.7833-.2217-.9163a1.5759,1.5759,0,0,0-.4434-.0886V8.4928c.4878-.0443.9607-.1773,1.4484-.266v5.1283c0,.5764.0443.5764.606.65v.2217A7.7472,7.7472,0,0,0,817.1548,14.1828Z"/><path d="M793.6412,20.8925a2.6957,2.6957,0,0,1-1.8326.3991h-1.4927c-.4434,0-.872.0443-1.3154.0443v-.2217h.1774a.7993.7993,0,0,0,.4434-.0887c.31-.1773.2217-1.0049.2217-1.271V16.9908c0-.31.0443-1.0936-.2217-1.271a.7993.7993,0,0,0-.4434-.0887h-.1774v-.2217c.5321,0,1.0494.0444,1.5814.0444.3547,0,.6946-.0444,1.0493-.0444.9163,0,1.9657.31,1.9657,1.4041a1.321,1.321,0,0,1-.6947,1.138,4.244,4.244,0,0,1-.65.2217,2.5923,2.5923,0,0,1,1.4927.5763,1.41,1.41,0,0,1,.4877,1.0937A2.0015,2.0015,0,0,1,793.6412,20.8925Zm-2.3351-2.5863H790.73v1.36c0,.3547-.0443,1.0936.3547,1.3153a1.2168,1.2168,0,0,0,.5764.0887h.133a1.9426,1.9426,0,0,0,.739-.1774,1.2867,1.2867,0,0,0,.532-1.138C793.0648,18.5574,792.3259,18.3062,791.3061,18.3062Zm0-2.7194c-.133,0-.4877-.0443-.5764.133a.3326.3326,0,0,0-.0443.2217v2.143h.6059a1.1467,1.1467,0,0,0,1.271-1.2267A1.1168,1.1168,0,0,0,791.3061,15.5868Z"/><path d="M796.9665,21.41a2.0978,2.0978,0,0,1-2.143-2.0543,2.0613,2.0613,0,0,1,2.143-2.01,2.13,2.13,0,0,1,2.1873,2.01A2.1348,2.1348,0,0,1,796.9665,21.41Zm-.0443-3.8574c-.9607,0-1.271.9607-1.271,1.7883s.2217,1.877,1.271,1.877c1.005,0,1.2266-.9607,1.2266-1.7883C798.1932,18.5574,797.9715,17.5524,796.9222,17.5524Z"/><path d="M801.1638,21.41c-.739,0-1.0937-.31-1.0937-1.0493V17.6854h-.4433v-.0886h.0443a2.1956,2.1956,0,0,0,1.0493-1.138h.133v1.0049h1.005v.2217h-1.005v2.32a2.7238,2.7238,0,0,0,.0444.5764c.0443.3547.133.5763.532.5763a.7377.7377,0,0,0,.65-.4433l.1774.133A1.1762,1.1762,0,0,1,801.1638,21.41Z"/><path d="M805.8488,21.3655a.71.71,0,0,1-.739-.5764,2.4064,2.4064,0,0,1-1.4927.65.8151.8151,0,0,1-.9163-.7833c0-.739.6946-1.0494,1.3154-1.3154l.65-.31c.0886-.0444.31-.1331.3547-.2217a.3326.3326,0,0,0,.0443-.2217c0-.65-.0887-1.0493-.7833-1.0493-.4434,0-.7833.0443-.8276.532-.0444.2217-.1331.399-.3991.399a.303.303,0,0,1-.31-.31c0-.6946,1.1823-.7833,1.67-.7833.872,0,1.4484.2217,1.4484,1.1823v1.7144c0,.2217,0,.6946.31.6946.1774,0,.2661-.0887.3991-.2217l.1773.0887A1.23,1.23,0,0,1,805.8488,21.3655Zm-.7833-2.32a3.4279,3.4279,0,0,0-.739.3547c-.399.2217-.8276.4877-.8276.9607a.5964.5964,0,0,0,.5764.65,1.5057,1.5057,0,0,0,1.005-.5321l-.0148-1.4336Z"/><path d="M810.8441,21.2768a7.3,7.3,0,0,0-1.0049.0443v-.2217c.5763-.0443.6059-.0886.6059-.65v-1.404c0-.6059-.0443-1.404-.8276-1.404a1.0722,1.0722,0,0,0-.9163.4877,2.0243,2.0243,0,0,0-.2217,1.138v1.1823c0,.5764.0443.606.6059.65v.2217c-.3547,0-.65-.0443-1.005-.0443a7.6288,7.6288,0,0,0-1.0049.0443v-.2217c.5763-.0443.6059-.0886.6059-.65V18.9564c0-.2216.0443-.9163-.133-1.0493a.4224.4224,0,0,0-.31-.0886h-.1773v-.1774a5.5276,5.5276,0,0,0,1.2267-.31,6.2609,6.2609,0,0,1,.133.872,1.553,1.553,0,0,1,1.404-.8276c.532,0,1.1823.1773,1.3153.7833a3.2773,3.2773,0,0,1,.0444.65V20.523c0,.1774,0,.4877.1773.5764a.8768.8768,0,0,0,.4877.0887V21.41A2.6225,2.6225,0,0,0,810.8441,21.2768Z"/><path d="M813.3862,21.2768a7.3009,7.3009,0,0,0-1.005.0443v-.2217c.5764-.0443.6059-.0886.6059-.65V18.8234a5.7506,5.7506,0,0,0-.0443-.8719.4025.4025,0,0,0-.31-.133h-.31v-.2217a8.6273,8.6273,0,0,0,1.4483-.3547v3.1627c0,.5764.0444.606.606.65v.2217Zm-.0887-5.0841a.4877.4877,0,1,1,.4877-.4877A.4646.4646,0,0,1,813.2975,16.1927Z"/><path d="M816.7115,21.41a1.8309,1.8309,0,0,1-1.9213-1.9213,2.1115,2.1115,0,0,1,2.1873-2.1873c.3547,0,1.1823.0887,1.1823.6059a.303.303,0,0,1-.31.31c-.2217,0-.31-.1774-.3991-.3547-.133-.31-.1773-.3547-.532-.3547-.9607,0-1.271.9606-1.271,1.7883s.266,1.7587,1.271,1.7587a1.4423,1.4423,0,0,0,1.138-.5764l.1773.1774A1.7284,1.7284,0,0,1,816.7115,21.41Z"/><path d="M791.9268,27.1884a6.96,6.96,0,0,0,.0444.9607,2.1953,2.1953,0,0,0-1.271.399,3.1788,3.1788,0,0,1-1.4484.3547,2.9883,2.9883,0,0,1-2.143-.7833,2.8212,2.8212,0,0,1-.872-2.1429,3.0943,3.0943,0,0,1,3.148-3.281,2.7445,2.7445,0,0,1,1.8326.5764l.1774-.3991h.0886l-.0886,1.7883h-.1774a1.68,1.68,0,0,0-1.7883-1.7144c-1.7143,0-2.0986,1.6257-2.0986,3.015,0,1.3153.4877,2.7193,2.01,2.7193.8719,0,1.537-.399,1.537-1.36,0-.5764-.1773-.739-.7833-.7833v-.2217h2.3647v.2217C792.0155,26.5382,791.9268,26.7155,791.9268,27.1884Z"/><path d="M796.2128,28.8142a.71.71,0,0,1-.739-.5764,2.4065,2.4065,0,0,1-1.4927.65.8151.8151,0,0,1-.9163-.7832c0-.739.6946-1.0494,1.3154-1.3154l.65-.31a1.7985,1.7985,0,0,0,.3991-.2216.3327.3327,0,0,0,.0443-.2217c0-.65-.0887-1.0494-.7833-1.0494-.4434,0-.7833.0444-.8276.5321-.0443.2217-.133.399-.399.399a.303.303,0,0,1-.31-.31c0-.6946,1.1823-.7833,1.67-.7833.872,0,1.4484.2217,1.4484,1.1823v1.7144c0,.2217,0,.6946.31.6946.1773,0,.266-.0887.399-.2217l.1773.0887A1.5118,1.5118,0,0,1,796.2128,28.8142Zm-.8277-2.276a3.4177,3.4177,0,0,0-.7389.3547c-.3991.2216-.8276.4877-.8276.9606a.5963.5963,0,0,0,.5763.65,1.5049,1.5049,0,0,0,1.005-.5321V26.5382Z"/><path d="M800.3805,25.5775c-.399,0-.31-.4877-.65-.4877a.9.9,0,0,0-.6946.4434,2.0241,2.0241,0,0,0-.2217,1.138v1.2267c0,.6059.133.6059.6946.65V28.77c-.3547,0-.6946-.0443-1.0493-.0443a8.3151,8.3151,0,0,0-1.0493.0443v-.2217c.5764-.0443.6059-.0886.6059-.65V26.4052c0-.2217.0444-.9164-.1773-1.0937-.0887-.0443-.2217-.0443-.31-.0887h-.1773v-.1773a6.2279,6.2279,0,0,0,1.2266-.31,3.5849,3.5849,0,0,1,.1331.9607,1.3533,1.3533,0,0,1,1.3153-.9164c.266,0,.65.1331.65.4878A.2832.2832,0,0,1,800.3805,25.5775Z"/><path d="M804.4891,28.8585a3.4128,3.4128,0,0,1-.1773-.6946,1.5776,1.5776,0,0,1-1.4041.6946,1.9033,1.9033,0,0,1-1.9213-2.01,1.95,1.95,0,0,1,1.9657-2.0543,1.5688,1.5688,0,0,1,1.271.5764v-1.537c0-.5764-.0887-.6946-.6946-.739v-.1773c.4877-.0444.9606-.1774,1.4483-.2661v4.6259c0,.266-.0443.872.266,1.0493a.8345.8345,0,0,0,.3547.0887h.1331v.1774A10.1991,10.1991,0,0,0,804.4891,28.8585Zm-.2512-2.4977c0-.532,0-.8276-.4434-1.138a1.0513,1.0513,0,0,0-.65-.1773c-.9606,0-1.271.9606-1.271,1.7882s.266,1.7588,1.2267,1.7588a1.0722,1.0722,0,0,0,.9163-.4878,2.9816,2.9816,0,0,0,.1773-1.0936A3.1339,3.1339,0,0,0,804.2379,26.3608Z"/><path d="M809.6618,26.3165h-2.7194a1.3676,1.3676,0,0,0-.0443.4433c0,.872.4434,1.7588,1.404,1.7588a1.39,1.39,0,0,0,1.138-.606l.1774.1774a1.82,1.82,0,0,1-1.5814.7389,1.95,1.95,0,0,1-2.0543-1.9656,2.06,2.06,0,0,1,2.0543-2.0986,1.5658,1.5658,0,0,1,1.7144,1.4483C809.7505,26.3165,809.7505,26.3165,809.6618,26.3165Zm-1.6257-1.3154c-.6946,0-.9163.4877-1.0493,1.0937h1.5814c.1773,0,.3547,0,.3547-.1774A.8244.8244,0,0,0,808.0361,25.0011Z"/><path d="M813.9921,28.7255a7.3017,7.3017,0,0,0-1.005.0443v-.2217c.5764-.0443.606-.0887.606-.65v-1.404c0-.6059-.0444-1.404-.8277-1.404a1.0723,1.0723,0,0,0-.9163.4877,2.0243,2.0243,0,0,0-.2217,1.138v1.1823c0,.5764.0444.606.606.65V28.77c-.3547,0-.65-.0443-1.005-.0443a7.63,7.63,0,0,0-1.005.0443v-.2217c.5764-.0443.606-.0887.606-.65V26.4051c0-.2216.0443-.9163-.133-1.0936a.4221.4221,0,0,0-.31-.0887h-.1774v-.1773a5.5317,5.5317,0,0,0,1.2267-.31,6.2312,6.2312,0,0,1,.133.872,1.553,1.553,0,0,1,1.404-.8277c.5321,0,1.1824.1774,1.3154.7833a3.2855,3.2855,0,0,1,.0443.65v1.7144c0,.1773,0,.4877.1774.5764a.8766.8766,0,0,0,.4877.0887v.2216A3.9736,3.9736,0,0,0,813.9921,28.7255Z"/><path d="M816.9332,28.8585a1.6813,1.6813,0,0,1-1.005-.31l-.1774.2661h-.133V27.4988h.1774c.133.606.4433,1.138,1.138,1.138a.6614.6614,0,0,0,.7389-.65c0-.9606-2.01-.8719-2.01-2.143a1.0819,1.0819,0,0,1,1.0937-1.0493,1.9558,1.9558,0,0,1,.872.2217l.1773-.2217h.0887v1.138h-.1773c-.1774-.4877-.3547-.9163-.9164-.9163a.5161.5161,0,0,0-.5763.4877c0,.3991.266.5321.5763.6946.65.3547,1.4484.606,1.4484,1.4927A1.2446,1.2446,0,0,1,816.9332,28.8585Z"/><path d="M868.0838,13.3108v.4434l.5764.0443a3.7145,3.7145,0,0,1,1.7883.5764.8327.8327,0,0,1,.266.9163l-3.547,9.2813L863.9752,16.03a3.123,3.123,0,0,1-.31-1.138,1.1353,1.1353,0,0,1,1.0936-1.0493l1.2267-.0887v-.4434h-7.5374v.4434l.739.0443c.7389.0444,1.138,0,1.5813.5321a.8932.8932,0,0,1,.1331.9606l-3.547,9.3257-3.148-8.5867a3.71,3.71,0,0,1-.3547-1.271c.0443-.606.606-.8277,1.005-.9163a5.4223,5.4223,0,0,1,.9606-.0887v-.4434h-7.4043v.4434a10.34,10.34,0,0,1,1.1823.0887c.65.0886,1.138.4877,1.6257,1.7587L855.95,28.2525l.133.3991h.2661l.1773-.3991L861.3,16.03l4.419,12.2223.1773.4434h.31l.133-.399,4.5076-11.4687.3991-.8719a9.6416,9.6416,0,0,1,.5764-1.138c.31-.5764,1.0049-.7833,1.9213-.9163a7.3013,7.3013,0,0,1,1.1823-.133v-.4434l-6.8428-.0148Z"/><path d="M838.5255,28.1934c-1.3153,0-2.4977-1.404-3.4583-2.542l-6.828-10.1089,3.99-4.5077c1.36-1.404,2.0986-2.0543,3.68-2.1873l.8276-.0887V8.2711h-7.0053v.5321a5.7094,5.7094,0,0,1,.6946.0443c.65.0443,1.3154.399,1.3154.9607,0,.6946-.606,1.3153-1.271,2.01l-5.38,5.956V11.2565c0-2.143,1.0049-2.32,1.3153-2.3647a5.8815,5.8815,0,0,1,.872-.0886V8.3155h-6.961v.4877s.4877,0,.9606.0443c.4877.0443,1.2267.31,1.2267,2.409V25.8879c0,2.1429-.4877,2.3646-1.7883,2.3646h-.399v.5764h7.094v-.5764h-.4434c-1.3153,0-1.877-.2217-1.877-2.32v-6.828l1.2711-1.404,6.2663,9.1927a1.112,1.112,0,0,1,.1774.399.8913.8913,0,0,1-.1774.5764c-.2217.31-.65.4434-1.4927.4434h-.399v.5763h8.2172v-.5763Z"/><path d="M849.9941,19.1338A6.125,6.125,0,0,0,848.28,15.01a6.4168,6.4168,0,0,0-4.5964-1.7883c-4.1233,0-7.0053,3.5027-7.0053,7.7887a7.5144,7.5144,0,0,0,7.7443,7.8329,6.4145,6.4145,0,0,0,4.1234-1.3153,5.8679,5.8679,0,0,0,1.404-1.6257,3.5952,3.5952,0,0,0,.532-1.271l-.3546-.1774s-.1331.31-.4878.9606a5.4182,5.4182,0,0,1-1.5813,1.4484,5.8072,5.8072,0,0,1-2.8081.6059c-1.7883,0-5.5569-1.3153-5.5569-8.1433v-.2217h10.3454c-.0444.0739-.0444.0739-.0444.03Zm-2.409-.532h-7.9216l.0443-.2661c.2661-2.4533,1.67-4.685,3.9017-4.7293C846.1811,13.5768,847.5851,15.5425,847.5851,18.6018Z"/></svg>