<svg xmlns="http://www.w3.org/2000/svg" viewBox="0 0 1800 600.3365"><path d="M229.5106,275.9674h-125.38V343.29H218.3575V431.983H104.1307v158.16H0V187.274H229.5106Z"/><path d="M258.1955,316.033h96.1673v44.888q15.4085-24.56,37.7236-37.6662,22.3047-13.0761,52.065-13.086h8.2378a58.5936,58.5936,0,0,1,10.35,1.0621v92.4327a90.9405,90.9405,0,0,0-41.4411-9.6232q-33.4581,0-50.2066,20.0334-16.7286,20.0427-16.7289,58.5058V590.142H258.1955Z"/><path d="M571.6417,469.3932q0,62.5208,58.4438,62.5208,31.3455,0,47.292-25.6423h92.98q-28.1829,94.0462-140.78,94.0463-34.5438,0-63.218-10.41-28.6737-10.42-49.15-29.6567a132.4775,132.4775,0,0,1-31.6186-45.95q-11.1534-26.7143-11.153-59.8437c0-22.1,3.5413-43.3726,10.6246-61.7139A129.9223,129.9223,0,0,1,515.35,345.9865q19.635-19.246,47.546-29.6567,27.8811-10.42,62.9634-10.41c23.3815,0,43.7336,3.4635,62.1593,10.41q27.6187,10.42,46.7471,30.1877,19.1382,19.7775,29.212,48.3515,10.0935,28.6033,10.0935,64.39V469.413h-202.41Zm112.6231-56.1044Q679.4753,392.98,664.5989,380.7q-14.878-12.28-36.1179-12.299-22.3047,0-36.3929,11.7481t-17.8049,33.12H684.2648Z"/><path d="M985.4887,386.5831q-26.56-13.9035-52.0644-13.8935c-8.8666,0-16.0244,1.79-21.5263,5.3528q-8.2432,5.3427-8.2332,14.4246a19.1468,19.1468,0,0,0,1.3259,7.7536q1.326,2.9518,5.8517,5.6082,4.5223,2.6866,13.2865,4.802c5.8517,1.4362,13.5373,3.2075,23.11,5.3331q39.85,8.0283,59.4993,28.5932,19.6626,20.5751,19.666,52.6416,0,24.0573-9.5725,43.2743a92.2767,92.2767,0,0,1-26.5665,32.3324q-17.0007,13.1069-40.9152,20.3092-23.8881,7.2021-52.5921,7.2219-55.2674,0-108.905-31.5256l35.0636-68.3849q40.3842,27.777,76.5,27.787,13.27,0,21.777-5.884,8.48-5.874,8.49-14.9563a25.1725,25.1725,0,0,0-1.326-8.8163,14.4651,14.4651,0,0,0-5.5811-6.4151c-2.8368-1.9481-7-3.7392-12.4818-5.3331q-8.2431-2.3907-21.52-5.0771-44.6394-9.0921-62.4152-26.98-17.8221-17.8884-17.8056-49.4334,0-22.9657,8.49-41.4047a85.3833,85.3833,0,0,1,24.4356-31.25q15.942-12.8109,38.5272-19.7775,22.5719-6.9368,50.2039-6.9467a226.7808,226.7808,0,0,1,87.6557,17.6327L985.4688,386.622Z"/><path d="M1051.3607,146.6556h96.166V350.7667q19.6727-24.0573,39.84-32.3324,20.1871-8.2659,47.2881-8.2853,51.5364,0,77.8392,28.5938,26.2928,28.6035,26.2961,77.2007V590.1427h-96.1726V451.74q0-20.84-3.1864-33.6709-3.1964-12.8111-10.6214-19.7775-12.7455-11.2167-30.8216-11.2171-24.4424,0-37.4452,14.7-13.0326,14.7-13.0161,41.9556V590.1427h-96.166Z"/><path d="M1543.0626,188.4265h-77.0343l-12.3828,36.2484h-57.5069l78.9673-208.6565h58.8725l78.974,208.6565h-57.507Zm-14.3025-41.228-24.2245-69.4668-24.2047,69.4668Z"/><path d="M1619.2527,28.2a27.3379,27.3379,0,0,1,2.19-10.9218,28.84,28.84,0,0,1,6.05-8.9934,28.3673,28.3673,0,0,1,8.9391-6.0807A26.9332,26.9332,0,0,1,1647.29,0a27.2452,27.2452,0,0,1,10.8588,2.2041,28.5007,28.5007,0,0,1,14.9886,15.0741,27.3618,27.3618,0,0,1,2.19,10.9218,27.6351,27.6351,0,0,1-2.19,10.9219,28.5013,28.5013,0,0,1-14.9886,15.0742,27.8521,27.8521,0,0,1-21.7177,0,28.5617,28.5617,0,0,1-14.9886-15.0742A27.4071,27.4071,0,0,1,1619.2527,28.2Zm53.1066,54.5112V224.6756h-49.8015V82.73h49.8015Z"/><path d="M1694.09,82.731h49.795v23.2409A57.3779,57.3779,0,0,1,1763.4125,86.47q11.5682-6.7895,26.9624-6.79h4.2684a29.6167,29.6167,0,0,1,5.3567.5508v47.8792a47.0423,47.0423,0,0,0-21.46-4.9789q-17.3471,0-26.0057,10.3714-8.6886,10.3607-8.6686,30.3057v60.8867h-49.7949V82.731Z"/></svg>