<svg xmlns="http://www.w3.org/2000/svg" viewBox="0 0 1338.79 453.6809"><path d="M229.5106,129.3118h-125.38v67.3221H218.3575v88.6935H104.1307v158.16H0V40.6184H229.5106Z" fill="#fff"/><path d="M258.1955,169.3773h96.1673v44.8881q15.4085-24.56,37.7236-37.6662,22.3047-13.0761,52.065-13.086h8.2378a58.5842,58.5842,0,0,1,10.35,1.0621V257.008a90.9405,90.9405,0,0,0-41.4411-9.6232q-33.4581,0-50.2066,20.0334-16.7286,20.0427-16.7289,58.5058V443.4863H258.1955Z" fill="#fff"/><path d="M571.6417,322.7376q0,62.5207,58.4438,62.5208,31.3455,0,47.292-25.6423h92.98q-28.1829,94.0462-140.78,94.0463-34.5438,0-63.218-10.41-28.6737-10.42-49.15-29.6567a132.4775,132.4775,0,0,1-31.6186-45.95q-11.1534-26.7142-11.153-59.8437c0-22.1,3.5413-43.3726,10.6246-61.7139A129.9223,129.9223,0,0,1,515.35,199.3309q19.635-19.2462,47.546-29.6567,27.8811-10.42,62.9634-10.41c23.3815,0,43.7336,3.4635,62.1593,10.41q27.6187,10.42,46.7471,30.1877,19.1382,19.7775,29.212,48.3515,10.0935,28.6034,10.0935,64.39v10.1543h-202.41Zm112.6231-56.1044q-4.7895-20.3089-19.6659-32.5891-14.878-12.2794-36.1179-12.2989-22.3047,0-36.3929,11.7481t-17.8049,33.12H684.2648Z" fill="#fff"/><path d="M985.4887,239.9274q-26.56-13.9034-52.0644-13.8935c-8.8666,0-16.0244,1.7905-21.5263,5.3529q-8.2432,5.3427-8.2332,14.4246a19.1471,19.1471,0,0,0,1.3259,7.7536q1.326,2.9519,5.8517,5.6082,4.5223,2.6866,13.2865,4.802c5.8517,1.4362,13.5373,3.2075,23.11,5.3331q39.85,8.0283,59.4993,28.5932,19.6626,20.5749,19.666,52.6416,0,24.0573-9.5725,43.2743A92.2776,92.2776,0,0,1,990.2649,426.15Q973.2642,439.2567,949.35,446.459q-23.8881,7.2021-52.5921,7.2219-55.2674,0-108.905-31.5256L822.9162,353.77q40.3842,27.777,76.5,27.787,13.27,0,21.777-5.884,8.48-5.874,8.49-14.9563a25.1731,25.1731,0,0,0-1.326-8.8164,14.4655,14.4655,0,0,0-5.5811-6.415c-2.8368-1.9481-7-3.7392-12.4818-5.3331q-8.2431-2.3907-21.52-5.0771-44.6394-9.0921-62.4152-26.98-17.8221-17.8884-17.8056-49.4334,0-22.9659,8.49-41.4048a85.3838,85.3838,0,0,1,24.4356-31.25q15.942-12.8109,38.5272-19.7775,22.5719-6.9369,50.2039-6.9467a226.7808,226.7808,0,0,1,87.6557,17.6327l-32.3984,63.0512Z" fill="#fff"/><path d="M1051.3607,0h96.166V204.1111q19.6727-24.0573,39.84-32.3324,20.1871-8.2659,47.2881-8.2853,51.5364,0,77.8392,28.5938,26.2928,28.6035,26.2961,77.2007V443.4871h-96.1726V305.0844q0-20.84-3.1864-33.671-3.1964-12.8109-10.6214-19.7774-12.7455-11.2167-30.8216-11.2171-24.4424,0-37.4452,14.7-13.0326,14.7-13.0161,41.9556V443.4871h-96.166Z" fill="#fff"/></svg>