<svg width="774" height="338" viewBox="0 0 774 338" fill="none" xmlns="http://www.w3.org/2000/svg">
<path d="M1742.82 388.895C1719.3 328.814 1695.78 268.751 1672.26 208.669C1659.45 175.916 1649.49 139.635 1627.83 111.584C1594.12 67.9246 1533.27 57.4348 1487.12 88.8862C1457.94 108.781 1435.61 138.243 1418.3 168.717C1402.82 195.973 1390.85 225.887 1382.3 256.018C1374.1 284.938 1368.89 314.761 1365.65 344.838C1364.3 338.671 1362.94 332.521 1361.62 326.372C1345.7 252.708 1333.69 178.249 1323.5 103.59C1297.92 -91.0506 1283.49 -287.246 1248.6 -480.621C1238.9 -534.427 1227.49 -587.907 1213.82 -640.844C1206.19 -670.378 1175.23 -695.337 1144.1 -693.944C1131.26 -693.366 1118.97 -690.074 1107.6 -684.069C1093.83 -676.781 1076.67 -656.814 1074.37 -640.826C1035.6 -372.033 996.84 -103.222 958.064 165.57C954.141 192.808 950.201 220.045 946.278 247.283C945.266 244.317 944.253 241.332 943.295 238.348C937.438 220.081 932.684 201.037 922.524 184.506C904.953 155.931 875.487 136.94 841.556 136.145C806.178 135.313 778.194 155.677 758.436 183.132C756.068 186.424 753.935 189.896 752 193.477C748.493 161.338 744.932 129.2 740.666 97.1514C735.206 56.1145 729.241 15.168 720.636 -25.3264C711.163 -69.9081 702.251 -120.603 660.746 -146.99C631.316 -165.709 592.739 -165.076 562.784 -147.895C541.417 -135.632 523.701 -115.376 511.987 -93.9262C492.897 -59.0023 477.694 -21.3655 464.534 16.1446C445.752 69.7151 432.772 125.058 422.233 180.817C414.225 162.333 404.119 144.699 390.507 130.556C369.302 108.546 333.419 97.694 303.718 106.683C276.276 115.002 256.445 132.039 240.573 155.424C230.974 169.549 225.352 186.387 219.097 202.122C213.656 215.867 208.775 229.812 204.437 243.937C199.755 259.165 195.705 274.574 192.144 290.128C161.81 173.058 140.732 53.3112 117.611 -65.2057C107.885 -115.051 97.7982 -164.823 86.4818 -214.324C79.7751 -243.696 74.6772 -275.002 55.8226 -299.4C25.4164 -338.773 -24.929 -349.643 -69.1282 -327.18C-124.644 -298.984 -142.233 -234.436 -151.199 -177.917C-159.931 -122.918 -163.131 -67.8282 -162.118 -12.2141C-160.708 65.4288 -153.098 143.252 -152.917 220.931C-193.952 88.6511 -213.205 -49.9955 -253.987 -182.493C-269.642 -233.332 -288.859 -283.159 -311.763 -331.177C-318.885 -346.08 -339.15 -360.82 -354.986 -364.419C-375.16 -369.013 -391.9 -365.36 -410.7 -357.13C-432.23 -347.708 -451.555 -326.71 -462.401 -306.182C-471.874 -288.223 -478.4 -268.907 -482.359 -249.067C-490.674 -207.325 -497.634 -165.239 -504.305 -123.207C-518.441 -33.9533 -529.975 55.7889 -538.634 145.748C-543.225 193.495 -546.949 241.296 -549.896 289.169C-552.228 327.005 -514.97 363.195 -477.586 361.513C-436.424 359.668 -407.772 329.718 -405.277 289.169C-399.33 192.464 -389.984 95.994 -377.329 -0.0603638C-374.762 -18.6707 -372.105 -37.2811 -369.303 -55.8554C-342.548 51.9547 -323.477 162.026 -289.781 267.919C-274.975 314.417 -257.169 360.102 -236.109 404.142C-223.274 430.999 -205.703 452.739 -181.714 470.445C-150.892 493.197 -107.868 495.458 -74.8226 476.178C-42.3918 457.26 -30.063 422.481 -23.1936 387.828C-17.8065 360.663 -14.173 333.064 -11.6422 305.501C-7.43018 259.69 -7.66516 213.589 -9.38251 167.632C-11.4976 110.788 -15.9265 53.7814 -17.2823 -3.17114C-9.40057 37.6849 -1.66351 78.5772 6.36285 119.397C29.2307 235.798 54.5029 352.145 93.1162 464.494C116.346 532.081 144.149 598.493 177.628 661.667C191.981 688.742 229.962 704.404 259.283 694.909C289.491 685.124 312.63 657.941 312.377 625.151C311.726 544.995 311.473 464.585 321.253 384.898C321.289 384.663 321.325 384.428 321.361 384.193C332.045 443.406 352.527 499.346 393.472 544.579C410.537 563.424 439.913 569.772 463.829 563.189C486.01 557.076 510.559 536.748 514.337 512.657C525.093 444.13 535.686 375.584 546.623 307.075C556.819 243.141 567.9 179.207 584.857 116.666C587.749 105.977 590.859 95.3609 594.131 84.7987C595.233 91.9969 596.282 99.2133 597.294 106.43C616.51 255.096 621.536 408.591 674.937 550.185C681.444 567.439 691.08 584.386 708.163 593.429C722.769 601.152 737.828 604.226 754.278 602.02C769.445 599.976 785.136 593.754 795.802 582.125C799.562 577.242 803.34 572.359 807.1 567.476C813.644 556.19 816.934 544.018 816.97 530.96C817.386 527.488 817.856 524.033 818.29 520.561C824.599 476.124 832.824 431.994 843.146 388.317C843.996 384.735 844.846 381.136 845.695 377.519C854.21 394.176 863.502 410.417 873.643 426.116C891.088 453.155 911.533 480.573 944.344 489.525C983.481 500.196 1021.28 486.36 1045.7 454.728C1060.82 435.141 1067.47 412.678 1070.94 388.624C1077.57 342.65 1084.21 296.675 1090.84 250.683C1110.26 116.105 1129.67 -18.4718 1149.07 -153.049C1158.6 -68.2081 1167.53 16.6872 1178.63 101.329C1197.32 243.683 1220.71 385.784 1263.52 523.129C1274.56 558.541 1287.45 594.116 1305.35 626.689C1325.88 664.072 1354.1 695.035 1389.14 719.162C1407.83 732.039 1433.59 731.207 1453.49 722.815C1472.35 714.858 1491.85 697.477 1495.36 675.937C1505.27 615.042 1506.66 554.417 1505.97 492.889C1505.43 444.509 1504.89 396.075 1510.36 347.985C1514.87 319.156 1521.73 290.797 1532.17 263.524C1533.56 260.54 1534.99 257.573 1536.47 254.644C1559.15 312.048 1580.94 369.869 1603.43 427.31C1610.51 445.432 1619.28 460.371 1636.65 470.553C1652.15 479.632 1674.99 483.466 1692.37 477.842C1709.87 472.181 1726.75 461.329 1735.59 444.6C1744.14 428.431 1749.85 406.656 1742.88 388.859L1742.82 388.895Z" fill="#A7E8BD"/>
</svg>
