<svg width="1993" height="510" viewBox="0 0 1993 510" fill="none" xmlns="http://www.w3.org/2000/svg">
<path d="M41 258C75.2458 319.072 108.836 319.072 141.769 258C175.359 196.928 208.949 196.928 242.538 258C304.541 422.39 338.13 422.39 343.308 258C376.897 93.6103 410.487 93.6103 444.077 258C467.768 325.501 501.358 325.501 544.846 258C578.436 190.499 612.026 190.499 645.615 258C733.132 542.238 766.721 542.238 746.385 258C779.974 -26.238 813.564 -26.238 847.154 258C873.662 422.39 907.252 422.39 947.923 258C981.513 93.6103 1015.1 93.6103 1048.69 258C1072.1 322.746 1105.69 322.746 1149.46 258C1183.05 193.254 1216.64 193.254 1250.23 258C1316.58 449.023 1350.17 449.023 1351 258C1384.59 66.9773 1418.18 66.9773 1451.77 258C1489.72 498.615 1523.31 498.615 1552.54 258C1586.13 17.3849 1619.72 17.3849 1653.31 258C1676.13 344.328 1709.72 344.328 1754.08 258C1787.67 171.672 1821.26 171.672 1854.85 258C1928.19 548.667 1961.78 548.667 1955.62 258C1989.21 -32.6667 2022.79 -32.6667 2056.38 258C2085.84 477.033 2119.43 477.033 2157.15 258C2190.74 38.9668 2224.33 38.9668 2257.92 258C2278.31 304.837 2311.9 304.837 2358.69 258C2392.28 211.163 2425.87 211.163 2459.46 258C2534.22 419.635 2567.8 419.635 2560.23 258C2593.82 96.3654 2627.41 96.3654 2661 258C2688.24 358.562 2721.83 358.562 2761.77 258C2795.36 157.438 2828.95 157.438 2862.54 258C2925.04 531.677 2958.63 531.677 2963.31 258C2996.9 -15.6767 3030.49 -15.6767 3064.08 258C3086.62 351.675 3120.21 351.675 3164.85 258C3198.44 164.325 3232.03 164.325 3265.62 258C3294.68 326.419 3328.27 326.419 3366.38 258C3399.97 189.581 3433.56 189.581 3467.15 258C3505.14 344.328 3538.73 344.328 3567.92 258C3601.51 171.672 3635.1 171.672 3668.69 258C3720.95 440.298 3754.54 440.298 3769.46 258C3803.05 75.7019 3836.64 75.7019 3870.23 258C3898.19 379.226 3931.78 379.226 3971 258" stroke="#27D7FE" stroke-opacity="0.2" stroke-width="80" stroke-linecap="round"/>
</svg>
